<svg width="200" height="200" viewBox="0 0 200 200" xmlns="http://www.w3.org/2000/svg">
    <g fill="none" fill-rule="evenodd">
        <path d="M0 0h200v200H0z"/>
        <path d="M128.945 65.835a6509.507 6509.507 0 0 0-67.836-8.71c-1.923-.236-3.91-.481-5.9-.162-1.89.3-3.982.861-5.159 2.7a.5.5 0 0 0 .043.6c5.487 6.351 11.379 12.054 17.514 16.95 6.59 5.259 13.511 9.625 20.569 12.976a.5.5 0 0 0 .63-.176l29.88 19.787-.042.121a.5.5 0 1 0 .945.328c4.806-13.879 8.1-28.636 9.787-43.859a.5.5 0 0 0-.431-.555z" fill="#FFE69E" fill-rule="nonzero"/>
        <path d="M115.857 50.659c-.372-2.517-1.285-4.326-2.715-5.376-1.686-1.239-3.884-1.291-5.651-1.333l-29.055-.689c-1.82-.043-3.7-.088-5.55.274-1.478.29-3.551.984-5.028 2.648-1.666 1.876-2.126 4.43-2.454 6.886a137.579 137.579 0 0 0-1.2 19.57.5.5 0 0 0 .627.478l2.7-.711a786.475 786.475 0 0 1 46.3 7.755.5.5 0 0 0 .6-.444c.734-7.884 1.2-15.772 1.534-21.762.116-2.263.257-4.827-.108-7.296z" fill="#F6A887" fill-rule="nonzero"/>
        <path d="m93.093 43.608-.037.472a494.293 494.293 0 0 0-1.46 31.573l-.006.428.422.072c3.514.594 7.015 1.211 10.408 1.832l.511.093.074-.514c1-6.94 1.458-14.648 1.9-22.1.23-3.853.448-7.492.735-11.027l.043-.528-12.59-.301z" fill="#000" fill-rule="nonzero"/>
        <path d="M82.259 55.148c-.056-.652-.158-1.394-.67-1.94-.567-.6-1.391-.722-2.122-.759a15.89 15.89 0 0 0-2.429.064c-.7.073-1.5.219-2.089.751-.862.774-.933 1.988-.931 3.065l.007 4.123c0 .644 0 1.31.142 1.977.165.792.511 1.452 1 1.909.785.734 1.894.891 2.832.891.229 0 .449-.009.65-.022h.04c1.067-.067 2.679-.168 3.343-1.411.355-.665.319-1.33.288-1.915-.015-.448-.006-.897.027-1.344.016-.282.032-.574.037-.861a45.029 45.029 0 0 0-.125-4.528z" fill="#FFF" fill-rule="nonzero"/>
        <path d="M74.514 59.28a.5.5 0 1 1-.058-1c2.432-.29 4.906-.5 7.353-.619a.5.5 0 1 1 .05 1c-2.425.12-4.876.326-7.285.613l-.06.006z" fill="#000" fill-rule="nonzero"/>
        <path d="M77.05 65.028a.5.5 0 0 1-.5-.481 174.65 174.65 0 0 1-.042-11.489.5.5 0 1 1 1 .03c-.112 3.789-.1 7.633.041 11.422a.5.5 0 0 1-.481.518h-.018zM79.335 65a.5.5 0 0 1-.5-.481 419.425 419.425 0 0 1-.278-11.383.5.5 0 0 1 .495-.506h.006a.5.5 0 0 1 .5.5c.04 3.769.133 7.59.277 11.356a.5.5 0 0 1-.481.519L79.335 65z" fill="#000" fill-rule="nonzero"/>
        <path d="M120.819 48.214a.5.5 0 0 1-.419-.226c-1.721-2.624-2.649-5.959-2.682-9.647-.025-2.805.53-4.949 1.7-6.554a6.339 6.339 0 0 1 2.934-2.187c.047-1.558.323-3.1.82-4.577.959-2.876 2.728-5.749 5.411-8.785a.5.5 0 1 1 .749.662c-2.591 2.933-4.3 5.694-5.211 8.439a14.9 14.9 0 0 0-.76 4.009 4.442 4.442 0 0 1 2.408.293c1.689.717 2.89 2.548 3.061 4.665a4.311 4.311 0 0 1-.264 1.918c-.285.708-.764 1.2-1.387 1.419-.754.267-1.669.079-2.387-.49-.661-.525-1.053-1.249-1.321-1.821a12.377 12.377 0 0 1-1.109-4.676 5.036 5.036 0 0 0-2.138 1.717c-1.036 1.425-1.529 3.374-1.506 5.957.031 3.495.9 6.644 2.518 9.107a.5.5 0 0 1-.417.775v.002zm2.532-17.843a11.45 11.45 0 0 0 1.026 4.539c.328.7.648 1.153 1.037 1.461.443.352 1 .482 1.432.332.784-.278 1.062-1.395.987-2.315-.141-1.75-1.1-3.251-2.455-3.825a3.66 3.66 0 0 0-2.027-.192z" fill="#F6A887" fill-rule="nonzero"/>
        <path d="M188.171 53.538c-5.221-8.657-10.88-16.191-16.82-22.392a.5.5 0 0 0-.709-.013 7.077 7.077 0 0 1-6.612 1.734c-2.311-.609-4.238-2.488-4.91-4.788a.5.5 0 0 0-.721-.3c-6.316 3.483-12.526 7.32-18.532 11.031-1.4.867-2.803 1.732-4.208 2.595a.5.5 0 0 0-.155.7c.871 1.317 1.859 2.809 2.065 4.439.193 1.531-.3 3.205-1.4 4.713a14.82 14.82 0 0 1-3.676 3.545.5.5 0 0 0-.112.719 285.221 285.221 0 0 1 17.556 25.332.5.5 0 0 0 .799.071c1.563-1.752 4.156-2.433 6.451-1.7 1.62.521 3.147 1.747 4.666 3.75a.5.5 0 0 0 .342.194.485.485 0 0 0 .057 0 .5.5 0 0 0 .32-.116c7.025-5.856 14.555-11.908 22.577-15.913a.5.5 0 0 0 .183-.739c-1.24-1.725-1.7-4.314-1.192-6.757a8.423 8.423 0 0 1 3.86-5.431.5.5 0 0 0 .171-.687v.013z" fill="#73DEE4" fill-rule="nonzero"/>
        <path d="M160.26 72.232h-.034a.5.5 0 0 1-.465-.533c.229-3.386.416-6.951.6-10.4.39-7.4.793-15.053 1.645-22.19a.5.5 0 0 1 .993.119c-.848 7.1-1.251 14.74-1.64 22.124-.181 3.451-.369 7.02-.6 10.413a.5.5 0 0 1-.499.467zM151.736 57.072a2.532 2.532 0 0 1-1.166-.272c-.755-.39-1.181-1.086-1.406-1.6-.844-1.932-.843-4.783.792-6.493.276-.29.606-.525.971-.689a2.635 2.635 0 0 1 2.916.462c.551.512.949 1.219 1.181 2.1.564 2.144.24 4.107-.889 5.387a3.257 3.257 0 0 1-2.399 1.105zm-.4-8.143a2.09 2.09 0 0 0-.657.468c-1.009 1.055-1.539 3.25-.6 5.4.227.518.563.913.949 1.112.784.4 1.814.011 2.356-.6 1.285-1.457.9-3.613.672-4.472-.181-.686-.49-1.248-.9-1.624a1.629 1.629 0 0 0-1.826-.282l.006-.002zM169.565 62.783c-.109 0-.218-.006-.326-.019-.986-.116-1.793-.748-2.27-1.779a5.6 5.6 0 0 1-.436-2.881c.147-1.254.683-2.61 1.472-3.719.6-.843 1.519-1.441 2.4-1.561a2.393 2.393 0 0 1 1.869.526c1.935 1.569 1.329 4.476 1.1 5.329-.529 1.938-1.83 4.104-3.809 4.104zm-1.689-2.218c.336.724.833 1.13 1.479 1.206 1.637.191 2.689-2.018 3.051-3.354.759-2.792-.391-3.989-.762-4.29a1.393 1.393 0 0 0-1.1-.312c-.607.083-1.282.534-1.72 1.149-.694.977-1.166 2.163-1.293 3.256-.09.799.03 1.607.349 2.345h-.004z" fill="#FFF" fill-rule="nonzero"/>
        <path d="M162.6 107.247a.5.5 0 0 1-.078-.994 118.814 118.814 0 0 1 15.5-1.429.5.5 0 0 1 .026 1c-5.15.135-10.285.608-15.372 1.416a.433.433 0 0 1-.076.007zM171.011 115.155a.476.476 0 0 1-.091-.009l-7.248-1.346a.5.5 0 1 1 .182-.983l7.248 1.342a.5.5 0 0 1-.091.992v.004z" fill="#000" fill-rule="nonzero"/>
        <path d="M159.376 131.846c-2.56-9.788-4.929-18.6-8-27.393-3.507-10.052-7.431-18.472-12-25.741a.5.5 0 0 0-.674-.167c-9.802 5.681-23.802 13.08-34.025 17.995a.5.5 0 0 0 .167.946L98.61 159.36l-.257.113a.5.5 0 0 0 .4.916c10.316-4.512 23.185-10.576 35.631-16.441 8.966-4.224 17.434-8.215 24.715-11.52a.5.5 0 0 0 .277-.582z" fill="#5893ED" fill-rule="nonzero"/>
        <path d="M148.785 122.851a.5.5 0 0 1-.487-.388 170.788 170.788 0 0 0-11.821-34.243.5.5 0 0 1 .906-.424 171.854 171.854 0 0 1 11.889 34.443.5.5 0 0 1-.487.612zM113.969 145.011a.5.5 0 0 1-.238-.94c11.289-6.1 23-11.745 34.8-16.774a.5.5 0 1 1 .392.92 417.538 417.538 0 0 0-34.721 16.733.5.5 0 0 1-.233.061zM115.164 133.022a.5.5 0 0 1 0-1c3.89-.011 7.731-2.653 9.556-6.573 1.607-3.45 1.718-7.873.307-12.134a.5.5 0 0 1 .95-.314c1.512 4.566 1.388 9.137-.35 12.87-1.986 4.265-6.19 7.139-10.46 7.151h-.003zM140 119.1a.5.5 0 0 1-.461-.306 45 45 0 0 1-2.622-8.519.5.5 0 1 1 .981-.2 43.853 43.853 0 0 0 2.563 8.328.5.5 0 0 1-.267.655.494.494 0 0 1-.194.042z" fill="#FFF" fill-rule="nonzero"/>
        <path d="M116.411 80.667a.482.482 0 0 1-.1-.01 785.21 785.21 0 0 0-48.882-8.264.5.5 0 0 1 .136-.991 787.363 787.363 0 0 1 48.945 8.275.5.5 0 0 1-.1.99h.001z" fill="#000" fill-rule="nonzero"/>
        <path d="M135.119 98.85a.5.5 0 0 0-.28-.284C116.374 91.112 97.28 83.4 78.673 75.4c-10.66-4.588-20.115-8.946-27.873-15.841a.5.5 0 0 0-.763.119c-14.86 25.086-26.587 50.581-38.024 82.664-.586 1.644-.172 3.513 1.228 5.555.945 1.378 2.319 2.821 4.2 4.411 3.317 2.8 7.2 5.384 11.866 7.884 4.23 2.267 8.709 4.255 12.918 6.066a617.453 617.453 0 0 0 50.2 19.045.496.496 0 0 0 .607-.257c6.851-14.15 14.06-28.763 21.031-42.9 6.971-14.137 14.186-28.746 21.037-42.898a.5.5 0 0 0 .019-.398z" fill="#FFE69E" fill-rule="nonzero"/>
        <path d="M103.006 163.974a.5.5 0 0 1-.448-.72c3.518-7.164 7.125-14.476 10.613-21.547 6.892-13.972 14.017-28.414 20.8-42.414-18.318-7.393-37.243-15.039-55.693-22.976C67.537 71.7 58.005 67.3 50.137 60.306a.5.5 0 1 1 .665-.747c7.756 6.895 17.211 11.253 27.871 15.841 18.607 8 37.7 15.714 56.166 23.168a.5.5 0 0 1 .263.682c-6.852 14.153-14.062 28.768-21.034 42.9-3.488 7.071-7.1 14.382-10.612 21.546a.501.501 0 0 1-.45.278z" fill="#000" fill-rule="nonzero"/>
        <path d="M71.138 131.549a9.97 9.97 0 0 1-3.474-.583c-2.884-1.068-5.249-3.789-6.326-7.28-1-3.243-.858-6.7-.586-9.648a.502.502 0 0 1 1 .092c-.262 2.853-.4 6.185.547 9.261.986 3.2 3.123 5.677 5.717 6.637 1.737.643 3.84.691 6.25.143 3.646-.829 7.064-2.722 9.882-5.474a.5.5 0 1 1 .7.715c-2.951 2.882-6.533 4.865-10.359 5.735a15.155 15.155 0 0 1-3.351.402z" fill="#000" fill-rule="nonzero"/>
        <path d="M72.66 113.372c-4.432 5.617-8.865 11.235-13.149 16.967-.493.658-.987 1.326-1.319 2.078-.346.786-.487 1.753-.011 2.467.39.586 1.127.872 1.831.867 1.471-.012 2.688-1.094 3.734-2.128a126.541 126.541 0 0 0 11.6-13.186" fill="#FFE69E" fill-rule="nonzero"/>
        <path d="M59.992 136.251c-.927 0-1.778-.416-2.227-1.09-.508-.763-.519-1.836-.03-2.945.36-.819.9-1.54 1.375-2.177 4.288-5.737 8.8-11.451 13.158-16.977a.5.5 0 1 1 .785.62c-4.353 5.518-8.862 11.23-13.142 16.956-.465.623-.947 1.266-1.261 1.981-.343.779-.363 1.522-.053 1.988.268.4.809.649 1.411.644 1.285-.01 2.421-1.029 3.386-1.983a126.337 126.337 0 0 0 11.555-13.135.502.502 0 0 1 .8.607A127.46 127.46 0 0 1 64.1 133.979c-1.1 1.092-2.422 2.259-4.081 2.272h-.027zM67.759 111.872a2.626 2.626 0 0 1-1.769-.627 2.7 2.7 0 0 1-.812-1.562 4.678 4.678 0 0 1 .049-1.623.5.5 0 0 1 .985.177c-.09.42-.106.854-.048 1.28a1.7 1.7 0 0 0 .5.986c.485.437 1.231.427 1.767.272.686-.2 1.309-.646 1.911-1.077a.5.5 0 1 1 .583.813c-.64.458-1.365.977-2.216 1.224a3.4 3.4 0 0 1-.95.137zM81.861 119.43a2.533 2.533 0 0 1-1.086-.216c-.749-.355-1.249-1.213-1.273-2.187-.02-.807.251-1.563.49-2.23a.5.5 0 1 1 .941.336c-.219.614-.446 1.249-.431 1.869.012.492.233 1.087.7 1.308.212.1.493.136.884.112a5.126 5.126 0 0 0 2.2-.657.5.5 0 1 1 .494.869 6.135 6.135 0 0 1-2.919.796z" fill="#000" fill-rule="nonzero"/>
    </g>
</svg>
