<?xml version="1.0" encoding="UTF-8"?>
<svg width="148px" height="27px" viewBox="0 0 148 27" version="1.1" xmlns="http://www.w3.org/2000/svg" xmlns:xlink="http://www.w3.org/1999/xlink">
    <title>logo_woowbe_header</title>
    <g id="Desktop" stroke="none" stroke-width="1" fill="none" fill-rule="evenodd">
        <g id="00.00_Web-user" transform="translate(-88.000000, -26.000000)" fill-rule="nonzero">
            <g id="logo_woowbe_header" transform="translate(88.000000, 26.000000)">
                <ellipse id="Oval" fill="#73DEE4" transform="translate(19.540116, 18.513490) rotate(-67.500000) translate(-19.540116, -18.513490) " cx="19.540116" cy="18.5134897" rx="5.76754218" ry="5.99168704"></ellipse>
                <ellipse id="Oval" fill="#73DEE4" cx="6.03704745" cy="5.72" rx="6.03704745" ry="5.72"></ellipse>
                <path d="M25.3836907,0 L13.6958524,0 C13.5888314,0 13.5020738,0.0822013687 13.5020738,0.183601896 L13.5020738,5.72 C13.5020738,8.87974931 16.2055343,11.4412322 19.5404218,11.4412322 L25.3836907,11.4412322 C25.4907116,11.4412322 25.5774692,11.3590309 25.5774692,11.2576303 L25.5774692,0.183601896 C25.5774692,0.0822013687 25.4907116,0 25.3836907,0 Z" id="Path" fill="#73DEE4"></path>
                <path d="M6.03704745,12.7929858 L0.193778559,12.7929858 C0.086757616,12.7929858 0,12.8751872 0,12.9765877 L0,24.0506161 C0,24.1520166 0.086757616,24.234218 0.193778559,24.234218 L11.8816169,24.234218 C11.9886378,24.234218 12.0753954,24.1520166 12.0753954,24.0506161 L12.0753954,18.514218 C12.0753954,15.3544687 9.37193495,12.7929858 6.03704745,12.7929858 Z" id="Path" fill="#73DEE4"></path>
                <path d="M61.0857645,5.58074491 L58.7331107,5.58074491 C58.1355473,5.58036294 57.6155735,5.96807662 57.4755009,6.51848341 L55.379051,14.7744076 L55.1956766,14.7744076 L52.3072056,5.73725118 C52.2773234,5.64398964 52.1863809,5.58036675 52.0835149,5.58074491 L49.7776801,5.58074491 C49.2105076,5.5797026 48.7091285,5.92973817 48.5421793,6.44331754 L45.8565905,14.7731754 L45.6732162,14.7731754 L43.4076977,5.75080569 C43.3822225,5.65018839 43.2867051,5.57962815 43.1775044,5.58074491 L40.9666081,5.58074491 C40.6841076,5.58050043 40.4177754,5.705582 40.2469297,5.91875166 C40.0760839,6.13192133 40.0204347,6.4085861 40.0965554,6.66635071 L43.5676626,18.4550711 C43.6021225,18.5723579 43.7148796,18.6534633 43.8433743,18.6534633 L47.2975747,18.6534633 C47.4230702,18.6540718 47.5343384,18.5771267 47.5719859,18.4636967 L50.4721617,9.8307109 L50.6295255,9.8307109 L53.4789807,18.4624645 C53.5165235,18.5761387 53.6276801,18.6534633 53.7533919,18.6534633 L57.2062917,18.6534633 C57.3349729,18.6532098 57.4479459,18.5723016 57.483304,18.4550711 L61.2470299,5.7828436 C61.261855,5.73492401 61.2518544,5.68318335 61.2200683,5.64335152 C61.1882822,5.60351969 61.138466,5.5803025 61.0857645,5.58074491 Z" id="Path" fill="#000000"></path>
                <path d="M115.326854,5.58075694 L112.9729,5.58075694 C112.375336,5.58036294 111.855363,5.96807662 111.71529,6.51848341 L109.61884,14.7744076 L109.435466,14.7744076 L106.548295,5.73725118 C106.518048,5.64423435 106.427331,5.58075694 106.324605,5.58075694 L104.01877,5.58075694 C103.451394,5.57996141 102.949783,5.92979023 102.781968,6.44331754 L100.09768,14.7731754 L99.9143058,14.7731754 L97.6487873,5.75080569 C97.6235335,5.65108941 97.5294259,5.58075694 97.4211951,5.58075694 L95.198594,5.58075694 C94.9163222,5.58075694 94.6503687,5.70612918 94.4798232,5.91924268 C94.3092778,6.13235618 94.2537829,6.40879481 94.3298418,6.66635071 L97.8074517,18.4550711 C97.8419116,18.5723579 97.9546687,18.6534633 98.0831634,18.6534633 L101.537364,18.6534633 C101.662859,18.6540718 101.774128,18.5771267 101.811775,18.4636967 L104.711951,9.8307109 L104.869315,9.8307109 L107.71877,18.4624645 C107.755811,18.5759467 107.866511,18.6534633 107.99188,18.6534633 L111.455185,18.6534633 C111.583679,18.6534633 111.696436,18.5723579 111.730896,18.4550711 L115.486819,5.7828436 C115.501004,5.7351717 115.490926,5.68395909 115.45956,5.64433481 C115.428195,5.60471053 115.379128,5.58120357 115.326854,5.58075694 Z" id="Path" fill="#000000"></path>
                <path d="M141.0929,5.25791469 C137.053462,5.25791469 134.141582,8.06616114 134.141582,12.1916588 C134.141582,16.0941232 137.027452,18.9763033 141.0929,18.9763033 C144.573111,18.9763033 147.005097,17.3214218 147.755501,14.7707109 C147.768489,14.7242522 147.757844,14.6747122 147.72672,14.6367622 C147.695596,14.5988123 147.647559,14.5768025 147.596837,14.5772512 L144.802004,14.5772512 C144.704915,14.5768203 144.615655,14.6276587 144.57051,14.7090995 C144.050299,15.7072038 142.806995,16.3923223 141.198243,16.3923223 C138.987346,16.3923223 137.556766,15.0504265 137.446221,13.0653081 L147.72949,13.0653081 C147.84513,13.0653081 147.938875,12.9764864 147.938875,12.8669194 L147.938875,12.0425592 C147.938875,8.36436019 145.528998,5.25791469 141.0929,5.25791469 Z M137.499543,10.7745972 C137.708928,9.13450237 139.178524,7.84189573 141.0929,7.84189573 C143.086608,7.84189573 144.528893,9.01004739 144.686257,10.7745972 L137.499543,10.7745972 Z" id="Shape" fill="#000000"></path>
                <path d="M85.8191916,5.25791469 C82.8907524,5.25791469 80.2506906,6.92938725 79.1301469,9.49287401 C78.0096033,12.0563608 78.6292684,15.0069842 80.7001736,16.9687793 C82.7710788,18.9305743 85.8853603,19.5171664 88.5907343,18.4550098 C91.2961084,17.3928533 93.0597527,14.8911393 93.0592268,12.1164929 C93.0585085,8.32840543 89.8172447,5.25791469 85.8191916,5.25791469 Z M85.8191916,15.9659718 C83.5753431,15.9659718 81.7563445,14.2425013 81.7563445,12.1164929 C81.7563445,9.99048453 83.5753431,8.26701422 85.8191916,8.26701422 C88.0630401,8.26701422 89.8820389,9.99048453 89.8820389,12.1164929 C89.8823838,13.1375383 89.4544459,14.1168583 88.6924394,14.8388465 C87.930433,15.5608347 86.8968314,15.9662986 85.8191916,15.9659718 L85.8191916,15.9659718 Z" id="Shape" fill="#000000"></path>
                <path d="M69.466362,5.25791469 C66.5379228,5.25791469 63.8978611,6.92938725 62.7773174,9.49287401 C61.6567738,12.0563608 62.2764389,15.0069842 64.3473441,16.9687793 C66.4182493,18.9305743 69.5325308,19.5171664 72.2379048,18.4550098 C74.9432788,17.3928533 76.7069232,14.8911393 76.7063973,12.1164929 C76.705679,8.32840543 73.4644152,5.25791469 69.466362,5.25791469 Z M69.466362,15.9659718 C67.2225135,15.9659718 65.4035149,14.2425013 65.4035149,12.1164929 C65.4035149,9.99048453 67.2225135,8.26701422 69.466362,8.26701422 C71.7102105,8.26701422 73.5292093,9.99048453 73.5292093,12.1164929 C73.5295543,13.1375383 73.1016164,14.1168583 72.3396099,14.8388465 C71.5776034,15.5608347 70.5440018,15.9662986 69.466362,15.9659718 L69.466362,15.9659718 Z" id="Shape" fill="#000000"></path>
                <path d="M125.199156,5.25791469 C123.279578,5.25791469 122.077891,5.97753555 121.340492,6.6478673 L121.340492,0.246445498 C121.340493,0.185118482 121.314692,0.126321074 121.268802,0.0830721181 C121.222911,0.0398231626 121.160718,0.0156910054 121.095993,0.0160156579 L119.305167,0.0160156579 C118.974852,0.0156919271 118.657948,0.139788721 118.424258,0.360974896 C118.190568,0.58216107 118.059262,0.882292703 118.059262,1.19526066 L118.059262,18.4230332 C118.059977,18.5504933 118.169234,18.6534615 118.303761,18.6534597 L120.986749,18.6534597 C121.121276,18.6534615 121.230532,18.5504933 121.231248,18.4230332 L121.231248,17.3399052 C121.943937,18.0792417 123.182039,18.9763033 125.230369,18.9763033 C129.233392,18.9763033 132.123163,16.2432227 132.123163,12.1916588 C132.121863,8.09080569 129.173568,5.25791469 125.199156,5.25791469 Z M124.831107,16.0694787 C122.44594,16.0694787 120.947733,14.3295735 120.947733,12.1423697 C120.947733,9.67791469 122.612408,8.19061611 124.858418,8.19061611 C127.187663,8.19061611 128.769104,9.8307109 128.769104,12.1423697 C128.769104,14.5033175 127.191564,16.0694787 124.831107,16.0694787 L124.831107,16.0694787 Z" id="Shape" fill="#000000"></path>
            </g>
        </g>
    </g>
</svg>