<?xml version="1.0" encoding="UTF-8"?>
<svg width="200px" height="200px" viewBox="0 0 200 200" version="1.1" xmlns="http://www.w3.org/2000/svg" xmlns:xlink="http://www.w3.org/1999/xlink">
    <title>illustration_win_cashback</title>
    <g id="Desktop" stroke="none" stroke-width="1" fill="none" fill-rule="evenodd">
        <g id="00.00_Web-user" transform="translate(-1100.000000, -2038.000000)" fill-rule="nonzero">
            <g id="Hazte-un-Woowbe" transform="translate(0.000000, 1646.000000)">
                <g id="Group-9" transform="translate(88.000000, 143.000000)">
                    <g id="Group-22" transform="translate(0.000000, 248.000000)">
                        <g id="Group-12" transform="translate(960.000000, 1.000000)">
                            <g id="illustration_win_cashback" transform="translate(52.000000, 0.000000)">
                                <g id="smile-mobile-money" transform="translate(0.000000, 1.000000)">
                                    <path d="M129.468599,48.7205536 C130.173978,47.0090081 131.247329,45.4253844 132.691004,44.2740887 C134.134679,43.1227931 135.968663,42.4298837 137.808526,42.5199027 C138.400277,42.5390025 138.983247,42.6695689 139.527299,42.9048524 C140.928651,43.5432766 141.802145,45.0593861 141.985543,46.5980003 C142.168942,48.1366145 141.750417,49.6906267 141.129684,51.1096105 C139.149921,55.640172 135.109277,59.0833987 130.527843,60.8695652" id="Path" fill="#FFFFFF"></path>
                                    <path d="M130.122683,61.8357488 C129.843026,61.8370879 129.602407,61.6359665 129.550955,61.3578627 C129.499502,61.079759 129.651931,60.8042071 129.913137,60.703131 C134.552087,58.8888449 138.240557,55.4839839 140.032694,51.3623102 C140.715744,49.7939893 140.976229,48.4341532 140.831515,47.207841 C140.661332,45.7730441 139.84283,44.5209642 138.747634,44.0184924 C138.277908,43.8163245 137.774868,43.7050835 137.264606,43.6905389 C135.684329,43.610893 133.988282,44.1988669 132.61292,45.2986827 C131.361434,46.3001124 130.325282,47.7395943 129.615605,49.4625219 C129.535985,49.6556375 129.360579,49.7911097 129.155461,49.8179074 C128.950343,49.8447051 128.746675,49.7587571 128.621177,49.5924393 C128.495679,49.4261214 128.467417,49.2047013 128.547037,49.0115857 C129.331965,47.1059412 130.489677,45.5048249 131.895139,44.3804127 C133.486993,43.1060787 135.464364,42.4279176 137.321334,42.5204473 C137.976891,42.5418749 138.622585,42.6881016 139.224612,42.951472 C140.704167,43.6296332 141.761158,45.2073242 141.981123,47.0672895 C142.152464,48.509114 141.865352,50.069236 141.094316,51.8343291 C139.178303,56.2382772 135.255976,59.8691918 130.327598,61.7900628 C130.262613,61.8177916 130.193168,61.8332723 130.122683,61.8357488 L130.122683,61.8357488 Z" id="Path" fill="#000000"></path>
                                    <path d="M130.996096,54.1062802 C130.865574,54.106585 130.739072,54.0622727 130.63867,53.9810361 C130.400784,53.7888643 130.366083,53.4459634 130.560871,53.212249 C132.297923,51.1583158 134.201681,49.2437264 136.253749,47.4869812 C136.404335,47.3527893 136.617622,47.3083535 136.811388,47.3708039 C137.005154,47.4332543 137.149137,47.5928374 137.18783,47.7880337 C137.226523,47.9832301 137.153884,48.1835538 136.997916,48.31178 C134.991571,50.0304548 133.130413,51.90355 131.432448,53.9129435 C131.323764,54.0373986 131.163826,54.1082475 130.996096,54.1062802 L130.996096,54.1062802 Z" id="Path" fill="#000000"></path>
                                    <path d="M86.9565217,48.4294009 C85.5687379,46.3775663 83.3364265,44.8217797 80.8464012,44.5001792 C80.2382875,44.403141 79.6161402,44.4330654 79.0206245,44.5879963 C77.8106997,44.9440116 76.9177751,46.0298581 76.5584274,47.2189491 C76.1990797,48.40804 76.3055531,49.6896949 76.5729465,50.8977734 C77.6207415,55.6446435 81.1621915,59.7150846 85.6195548,61.8357488" id="Path" fill="#FFFFFF"></path>
                                    <path d="M85.0506362,62.8007586 C84.9615661,62.8005917 84.8736804,62.7805541 84.7935173,62.7421365 C82.5243696,61.6480828 80.5190079,60.0847818 78.9129593,58.1578849 C77.2986154,56.2390717 76.1680108,53.9682438 75.6142541,51.5324102 C75.2789331,50.0011998 75.2777482,48.7185473 75.6142541,47.6035542 C76.0526596,46.1380006 77.1285304,44.990179 78.4236039,44.6079627 C79.0160438,44.4344411 79.6783916,44.3992678 80.4592273,44.5012704 C82.9474747,44.826037 85.338562,46.3771789 86.8575778,48.6411661 C87.0388441,48.9118304 86.9640452,49.2766502 86.6905098,49.4560139 C86.4169743,49.6353775 86.0482847,49.5613638 85.8670184,49.2906995 C84.5340287,47.2975466 82.452195,45.94572 80.2980837,45.6655061 C79.7856399,45.5797001 79.2606274,45.6024782 78.75774,45.7323354 C77.8430129,46.0031697 77.0716562,46.8473285 76.7434445,47.936528 C76.4685524,48.8557232 76.4768465,49.9507848 76.7683269,51.2861972 C77.7162307,55.6242358 80.9900534,59.6105416 85.3065703,61.6881103 C85.5553245,61.8073214 85.6877208,62.0808944 85.6256333,62.3473966 C85.5635459,62.6138988 85.3234739,62.8025094 85.0470816,62.8019324 L85.0506362,62.8007586 Z" id="Path" fill="#000000"></path>
                                    <path d="M84.4433441,56.0386473 C84.2597966,56.0386473 84.0869608,55.9480639 83.9768323,55.794148 C82.5760702,53.8495249 81.0414246,52.0149558 79.3851901,50.3051381 C79.1709469,50.0661002 79.1748678,49.6924296 79.394075,49.4583889 C79.6132822,49.2243483 79.9696368,49.2133639 80.2015857,49.433498 C81.8992887,51.1848696 83.4721541,53.0644067 84.9075233,55.0569825 C85.0400495,55.2422016 85.0613667,55.4900089 84.9625875,55.6970901 C84.8638083,55.9041713 84.6618885,56.0349799 84.4410115,56.0349799 L84.4433441,56.0386473 Z" id="Path" fill="#000000"></path>
                                    <path d="M89.9608183,101.633306 C87.9664281,92.7226172 86.3601608,83.7334592 85.1420162,74.6658321 C83.905167,65.4489978 83.1137237,55.7439541 86.286511,46.8042742 C90.8224042,34.0227004 104.811193,26.0721951 118.261051,29.9894657 L118.49486,30.0578846 C131.604527,33.9508026 131.769362,50.0257596 131.257321,61.0342408 C130.583951,75.4706236 129.016262,91.0225821 126.952898,105.31401" id="Path" fill="#FFFFFF"></path>
                                    <path d="M127.355464,105.312718 C127.327552,105.31401 127.29956,105.31401 127.271648,105.312718 C127.118814,105.290955 126.980943,105.209743 126.888375,105.086954 C126.795807,104.964164 126.756129,104.809859 126.77807,104.657994 C128.930491,89.7254228 130.411226,74.4666461 131.058466,60.5439234 C131.321552,54.88507 131.379757,48.3297302 129.811715,42.6141958 C128.96425,39.5268123 127.697709,36.9530288 126.047015,34.9634075 C124.168158,32.6996347 121.717727,31.1067809 118.764405,30.2276458 L118.531585,30.1593972 C112.286189,28.3363488 105.610075,29.0789865 99.7290417,32.2519699 C93.9789967,35.3386015 89.5889116,40.4389838 87.4116993,46.5622061 C84.1999473,55.6300213 85.1545093,65.5202904 86.303476,74.0860732 C87.5048273,83.0636614 89.1159417,92.0979306 91.0902554,100.937865 C91.1396915,101.141172 91.0748142,101.355162 90.9205857,101.497499 C90.7663572,101.639836 90.5468095,101.688342 90.3464159,101.624353 C90.1460224,101.560363 89.9960085,101.39385 89.9540937,101.188881 C87.9751237,92.3154008 86.3558605,83.2487424 85.1486888,74.2364516 C83.9845888,65.541112 83.0183857,55.4854267 86.3127888,46.1758494 C88.5859937,39.7804432 93.1707429,34.4532171 99.1760942,31.2293971 C105.328363,27.9095056 112.321112,27.1344786 118.866846,29.0454406 L119.099666,29.1136892 C125.036576,30.8800566 129.018963,35.317375 130.935071,42.3007147 C132.546186,48.1735681 132.490309,54.8411133 132.222566,60.5901937 C131.572998,74.5545597 130.089935,89.8468822 127.931693,104.815313 C127.891101,105.100588 127.645405,105.312675 127.355464,105.312718 Z" id="Path" fill="#000000"></path>
                                    <path d="M131.398637,45.8174078 C130.737356,41.6258872 129.547969,38.2808404 127.763888,35.5893713 C125.639982,32.38616 122.664218,30.2007597 118.923847,29.0933087 L118.694236,29.0263623 C112.23871,27.1507306 105.342331,27.9121032 99.2748488,31.1686447 C93.3513933,34.3312782 88.8293387,39.5577519 86.5876689,45.8321587 C86.387907,46.3995004 86.1961814,46.9827277 86.0136404,47.5818405 C85.9626126,47.7534236 85.9964297,47.9387423 86.1048908,48.0818959 C86.213352,48.2250494 86.3837585,48.3091787 86.5647078,48.3091787 C86.619119,48.3094267 86.673273,48.3017805 86.7254358,48.2864789 C95.3617561,45.7732067 102.910379,40.4990447 108.188365,33.2905027 C113.540607,40.393621 121.914536,45.2988575 130.751132,46.4675814 C130.930633,46.4912148 131.110892,46.4297488 131.237461,46.3017497 C131.364031,46.1737506 131.422069,45.994228 131.394044,45.8174078 L131.398637,45.8174078 Z" id="Path" fill="#000000"></path>
                                    <path d="M138.333135,13.0816426 C137.641693,10.3573152 136.799988,8.27104474 135.684759,6.51843706 C134.26431,4.28465253 132.390725,2.6338998 130.268268,1.74647387 C127.029408,0.391920039 122.989931,0.822754793 119.724071,2.86921987 C116.891389,4.64524248 114.603409,7.60840216 113.281569,11.2143017 C111.550029,15.9370936 111.689726,21.3834068 113.674834,26.5510823 C114.403841,28.4500334 115.369982,30.0750297 116.545081,31.3839244 C118.159228,33.1798497 120.083292,34.2791807 122.263271,34.6503074 C122.793156,34.7389923 123.329559,34.7832452 123.866853,34.7826087 C127.108061,34.7826087 130.70849,33.2465822 133.790044,30.4918154 C137.156862,27.4818259 139.153709,23.0142568 139.130435,18.5431755 C139.122013,16.9263744 138.868445,15.1924987 138.333135,13.0816426 Z" id="Path" fill="#000000"></path>
                                    <path d="M102.851014,66.6666647 C102.433048,66.6669909 102.016087,66.6263524 101.606296,66.5453481 C100.224556,66.2721067 98.1853373,65.3526096 96.2716267,62.5204227 C94.9647812,60.5865952 93.9779905,58.4607548 93.3480942,56.2222649 C93.3158536,56.1088867 93.2767043,55.9796356 93.2329492,55.8390466 C92.8552734,54.5918866 92.1505858,52.2687677 93.7867968,51.3968895 C94.4960902,51.0182064 95.3044084,51.2676384 95.8225611,51.6236459 C97.3298096,52.6689927 98.2187293,54.3186452 99.0777113,55.9138762 C99.3678768,56.4524226 99.641922,56.9614906 99.9332389,57.4342776 C100.674773,58.6360863 101.531452,59.8084167 102.76811,60.2471902 C103.493523,60.5034249 105.060647,60.7245124 107.411909,59.3197567 C109.48452,58.0828008 111.055098,56.3911983 112.722398,54.6009569 C113.019472,54.2812304 113.31885,53.9603702 113.62053,53.6417775 C115.487031,51.6735323 116.729446,51.5340771 117.298262,51.6270472 C117.704724,51.6928066 118.26548,51.9365697 118.63049,52.7279494 C119.153249,53.8617312 118.600552,55.2381423 118.060522,56.3118336 C116.199778,60.0136312 112.669432,63.1768824 108.1189,65.2188234 L107.983029,65.2800476 C107.497116,65.4943324 106.996236,65.6950117 106.496506,65.8764168 C105.414143,66.2721067 104.184394,66.6666647 102.851014,66.6666647 Z M94.5605715,52.3435973 C94.4830327,52.3414388 94.4061962,52.3585982 94.3371901,52.3934837 C93.5231147,52.8277222 94.0527818,54.5760137 94.3371901,55.514785 C94.3820967,55.6633104 94.4235489,55.7993642 94.4523351,55.9195451 C94.8262191,57.250682 95.3334268,58.5419705 95.9664924,59.7744032 L95.9664924,59.7744032 C96.3430502,60.505882 96.7629006,61.2149599 97.2238762,61.8979765 C98.1600053,63.2823241 99.7190692,65.0215454 101.829678,65.4399108 C103.353047,65.7426306 104.772785,65.2993219 106.090044,64.820866 C106.565593,64.6496649 107.041142,64.4580558 107.502874,64.2539751 L107.632988,64.1961522 C111.941715,62.2619205 115.275164,59.286877 117.019611,55.8175048 C117.446799,54.9683022 117.894713,53.9048149 117.572307,53.2098066 C117.385772,52.8050465 117.179663,52.7721669 117.102516,52.7562939 C116.548668,52.6667251 115.490485,53.337924 114.45418,54.4252207 C114.154803,54.7415458 113.857728,55.0601385 113.562957,55.3775974 C111.91408,57.1474308 110.209934,58.9773546 108.001452,60.2982104 C106.554079,61.1632859 104.403169,62.0442344 102.370859,61.318614 C100.796827,60.7607934 99.7916105,59.4070579 98.9418401,58.0306468 C98.6321,57.5295153 98.3373287,56.9830324 98.051769,56.4535563 C97.2561168,54.97964 96.4339812,53.4479008 95.1512655,52.5590159 C94.9792488,52.4332323 94.774299,52.3584897 94.5605715,52.3435973 Z" id="Shape" fill="#000000"></path>
                                    <path d="M103.054236,49.2753623 C102.277279,51.5444852 101.420721,53.7833531 100.484564,55.9919661 C99.9452644,57.2510384 99.3899685,58.5077834 98.8792335,59.7808195 C98.0969924,61.7373754 97.4349214,63.7415588 96.89685,65.7817769 C96.726605,66.4276041 96.5689284,67.0920499 96.6329131,67.7599866 C96.6968978,68.4279233 97.0282472,69.0993509 97.6143929,69.400737 C98.2005385,69.702123 98.968355,69.5624847 99.5419322,69.199425 C100.36345,68.6815996 100.883326,67.8030417 101.360926,66.9419387 C103.552243,63.0140004 105.517379,58.9595816 107.246377,54.799222" id="Path" fill="#FFFFFF"></path>
                                    <path d="M98.8789288,70.531401 C98.5426131,70.5336006 98.2105193,70.4545989 97.909606,70.3007624 C97.2138552,69.9421919 96.7263793,69.1478025 96.6363144,68.2173639 C96.5631368,67.4713988 96.7252535,66.7680933 96.912138,66.0544111 C97.4456495,64.0111981 98.1025099,62.0038771 98.8789288,60.0440312 C99.2166719,59.1977587 99.5803086,58.3503331 99.9315615,57.5305787 C100.110565,57.1143601 100.289569,56.6969887 100.465196,56.2784642 C101.377102,54.1132056 102.223711,51.88684 102.982508,49.6616274 C103.048873,49.4672045 103.211478,49.3238096 103.409071,49.2854581 C103.606664,49.2471066 103.809225,49.3196251 103.940453,49.4756965 C104.071681,49.6317679 104.111638,49.8476813 104.045273,50.0421042 C103.278596,52.2926819 102.421854,54.5386478 101.499815,56.7292715 C101.321937,57.1504862 101.142558,57.5705479 100.961678,57.9894567 C100.613803,58.7965286 100.253543,59.6416482 99.9214292,60.4729323 C99.1600964,62.3903288 98.5152774,64.3541088 97.9906644,66.3530277 C97.8319251,66.9594846 97.6934504,67.5509531 97.7474893,68.1032208 C97.7992766,68.6324294 98.058213,69.0913075 98.4072142,69.2723222 C98.7562154,69.4533369 99.2966044,69.3876182 99.7581867,69.0970723 C100.433673,68.6693242 100.883997,67.9245121 101.356837,67.0655569 C103.505687,63.195463 105.433682,59.2010597 107.131119,55.1024451 C107.209551,54.9127593 107.380838,54.7803341 107.580458,54.7550529 C107.780078,54.7297717 107.977705,54.8154754 108.098894,54.9798801 C108.220082,55.1442848 108.246422,55.3624136 108.16799,55.5520995 C106.455141,59.6946858 104.508713,63.7318523 102.338544,67.6431899 C101.80491,68.6047584 101.252137,69.5155967 100.354866,70.0851589 C99.9125946,70.3706969 99.4017143,70.5251428 98.8789288,70.531401 L98.8789288,70.531401 Z" id="Path" fill="#000000"></path>
                                    <circle id="Oval" fill="#000000" cx="99.0338164" cy="49.7584541" r="1"></circle>
                                    <circle id="Oval" fill="#000000" cx="112.560386" cy="49.7584541" r="1"></circle>
                                    <path d="M200,192.197751 C193.235668,171.277407 183.990075,148.093118 167.817824,129.678996 C159.881271,120.644079 150.986997,113.407103 141.381969,108.17209 C131.017491,102.522079 120.039654,99.3400354 108.754558,98.7129004 C101.523149,98.3020329 94.268507,98.6724201 87.1165786,99.8176318 C79.9612821,100.962989 72.9659061,102.947336 66.2751532,105.729626 C54.9472221,110.491696 44.6454398,117.395577 35.9353713,126.062247 C31.4934519,130.49972 27.4527082,135.560851 23.5824062,141.53776 C20.3683628,146.500357 17.3212826,151.999671 13.9936113,158.845991 C8.27743735,170.601585 3.85986678,182.685237 0,194.236809 C13.2527117,196.903002 27.015589,197.095432 40.5929516,197.101449 C93.7568481,197.12789 146.896396,194.741067 200,192.197751 Z" id="Path" fill="#73DEE4"></path>
                                    <path d="M19.7762893,41.5435437 C19.4749654,41.5439053 19.2265496,41.2976425 19.2120862,40.9842304 C19.1827476,40.3309148 19.1285842,39.6717242 19.0529809,39.0231088 C18.9491676,38.1430128 18.7889339,37.1172135 18.3894781,36.1748411 C18.000178,35.2559692 17.405508,34.529802 16.7171802,34.1291175 C16.1529771,33.8012847 15.4488517,33.6344307 14.62173,33.6332557 L14.6059323,33.6332557 C13.948581,33.636365 13.2923379,33.6897768 12.6425056,33.7930595 C12.5093536,33.8189101 12.3750733,33.8412356 12.2419214,33.858861 C12.0425683,33.889926 11.8424431,33.8078835 11.7169309,33.6436381 C11.5914187,33.4793927 11.5595879,33.2578972 11.6334289,33.0625868 C11.7072698,32.8672764 11.8755642,32.7278234 12.0749173,32.6967584 L12.4551901,32.6333069 C13.6348718,32.379236 14.7344378,31.8208786 15.6530932,31.0094183 C16.6032112,30.195124 17.4664419,29.0964729 18.2179604,27.7440157 C19.0909526,26.1744953 19.714363,24.4682483 20.0640329,22.6913956 C20.1235555,22.3901261 20.3961465,22.1876554 20.6890788,22.2271342 C20.9820111,22.266613 21.19612,22.5346767 21.1800265,22.8417992 C21.1200765,23.8354483 21.1110364,24.8317188 21.1529448,25.8263701 C21.1670573,26.4434188 21.2484484,27.0568002 21.3955521,27.6547136 C21.5284563,28.195233 21.7994644,28.6881787 22.1797944,29.0811975 C22.7518963,29.6322856 23.5338818,29.7932644 24.0868008,29.8320403 C24.3596865,29.8494515 24.6333942,29.8474886 24.9060237,29.8261652 C25.4352462,29.7251128 25.9565698,29.6640113 26.4451697,29.6170102 C26.7453598,29.5927172 27.0109721,29.8181638 27.0486523,30.1292344 C27.0863324,30.440305 26.8828011,30.727372 26.5862204,30.7814629 C26.0840797,30.8660649 25.5706549,30.953017 25.0470744,30.9941429 C24.4459316,31.1030544 23.8604984,31.2909946 23.3048153,31.5534562 C22.5848922,31.9059646 21.5975368,32.5686804 20.9769134,33.688482 C20.6203371,34.3312223 20.3890138,35.1337663 20.2897141,36.0737887 C20.1983132,36.9468344 20.2231381,37.8598311 20.2479631,38.7422771 C20.2581187,39.1018356 20.2761732,39.4719694 20.2930993,39.8291779 C20.3100254,40.1863864 20.3292083,40.5694455 20.339364,40.9419294 C20.3482528,41.2642345 20.1060264,41.533774 19.7966006,41.5458937 L19.7762893,41.5435437 Z M15.5786184,32.5287294 C16.1720703,32.6097039 16.7459674,32.8045242 17.2712276,33.1033181 C18.2597114,33.6767317 18.8814632,34.573278 19.2572225,35.3358711 C19.3787843,34.5518854 19.6316265,33.7962227 20.0042273,33.1033181 C20.6034658,32.0604169 21.4717984,31.2136115 22.5104174,30.65926 C22.1079854,30.4920645 21.7379255,30.2504249 21.4181202,29.946018 C20.8859378,29.4076885 20.5047843,28.7284469 20.3156674,27.9813713 C20.1908009,27.5107463 20.10956,27.0287373 20.0730601,26.5419621 C19.8141824,27.1570776 19.5222144,27.7565092 19.1985453,28.3374048 C18.3793225,29.8120649 17.4292045,31.0176435 16.3775299,31.922415 C16.1215668,32.1388954 15.8548982,32.341277 15.5786184,32.5287294 L15.5786184,32.5287294 Z" id="Shape" fill="#5893ED"></path>
                                    <path d="M16.9644733,101.449275 C16.7374426,101.449684 16.5500091,101.213019 16.5382037,100.911041 C16.4069127,97.479517 16.3881568,92.867058 16.491314,89.4343984 C16.5007309,89.1208348 16.6992122,88.876809 16.9346344,88.8893515 C17.1700566,88.9018941 17.3532701,89.1662553 17.3438532,89.4798189 C17.2415485,92.8863617 17.2585993,97.4522646 17.3907429,100.85313 C17.3965431,101.003569 17.3572191,101.150912 17.281428,101.262722 C17.2056369,101.374531 17.0995921,101.44164 16.9866393,101.449275 L16.9644733,101.449275 Z" id="Path" fill="#F6A887"></path>
                                    <path d="M21.6161669,98.5444525 C21.512167,98.5443387 21.4099632,98.5162513 21.3194833,98.4629189 C18.6022953,96.8598418 15.7898309,95.3495877 12.9628942,93.9722962 C12.7459342,93.8927317 12.591403,93.6917072 12.5645277,93.4540746 C12.5376524,93.216442 12.643116,92.983609 12.8364027,92.8538539 C13.0296894,92.7240987 13.2771187,92.7200314 13.4742513,92.8433687 C16.3301329,94.2332039 19.1691299,95.7597647 21.9164686,97.3778941 C22.1547899,97.5183695 22.2721315,97.8082701 22.2021666,98.0837308 C22.1322017,98.3591916 21.8925112,98.5509948 21.618579,98.5507246 L21.6161669,98.5444525 Z" id="Path" fill="#F6A887"></path>
                                    <path d="M14.0815224,98.5507246 C13.8552481,98.5502487 13.6518186,98.4088699 13.5670669,98.1931887 C13.4823151,97.9775076 13.5331447,97.7305412 13.6956105,97.5686322 C15.776676,95.4999436 18.0118361,93.6016273 20.3806726,91.8910244 C20.6321945,91.7098055 20.9789965,91.7725097 21.1552768,92.0310782 C21.331557,92.2896467 21.2705617,92.6461649 21.0190399,92.8273838 C18.6981954,94.5039528 16.5080589,96.3640171 14.4685465,98.390662 C14.3646324,98.4936265 14.2258476,98.5510237 14.0815224,98.5507246 Z" id="Path" fill="#F6A887"></path>
                                    <path d="M44.0030493,9.66183575 C43.7678087,9.66226693 43.5735971,9.41249928 43.5613648,9.09380263 C43.4650776,6.54724317 43.4509437,3.12466726 43.5269135,0.575711043 C43.5366709,0.244787308 43.7423297,-0.0127487037 43.9862652,0.000488245767 C44.2302008,0.0137251952 44.4200397,0.292722542 44.4102823,0.623646279 C44.3360793,3.14024621 44.3493298,6.51848203 44.4438503,9.03268521 C44.4563743,9.36286984 44.2693912,9.64441847 44.0260168,9.66183575 L44.0030493,9.66183575 Z" id="Path" fill="#73DEE4"></path>
                                    <path d="M46.7695503,6.76328502 C46.6707532,6.76318544 46.5736623,6.73868326 46.4877088,6.69215832 C44.6809444,5.71389603 42.810021,4.79144064 40.9276406,3.94886574 C40.7350649,3.87034094 40.602691,3.69771893 40.5824108,3.49866941 C40.5621306,3.29961989 40.6571758,3.10586134 40.8302876,2.99334921 C41.0033995,2.88083709 41.2269926,2.86750016 41.4134162,2.95856666 C43.3221476,3.8120841 45.2205677,4.74767052 47.0525375,5.7401581 C47.2789362,5.86270275 47.3904076,6.11559956 47.3239429,6.3558997 C47.2574781,6.59619985 47.0297785,6.76352066 46.7695503,6.76328502 L46.7695503,6.76328502 Z" id="Path" fill="#73DEE4"></path>
                                    <path d="M41.139607,7.7294686 C40.9115688,7.7294686 40.7063199,7.59537257 40.6206962,7.39047065 C40.5350725,7.18556873 40.5861833,6.95079515 40.7499147,6.79691529 C42.2271995,5.41274132 43.813544,4.1423279 45.4945297,2.99722194 C45.7477855,2.82484413 46.0972291,2.88414244 46.2750339,3.12966841 C46.4528387,3.37519439 46.3916735,3.71397235 46.1384177,3.88635019 C44.5049732,4.99859085 42.9635479,6.23271412 41.5281794,7.57748087 C41.4238277,7.67499067 41.2845399,7.7294686 41.139607,7.7294686 L41.139607,7.7294686 Z" id="Path" fill="#73DEE4"></path>
                                    <path d="M158.196023,89.8550725 C158.167139,89.8550725 158.138299,89.8527309 158.10977,89.8481075 C157.816542,89.8028163 157.606859,89.5342215 157.62857,89.2317119 C157.717092,88.0070462 157.74206,86.9901675 157.546856,86.0034701 C157.335763,84.9076555 156.854563,83.9813208 156.184967,83.3939456 C155.371238,82.6753977 154.274917,82.433947 153.49864,82.3573329 C152.583905,82.2679497 151.689597,82.3201866 150.748759,82.3817101 C150.61711,82.3944791 150.484325,82.4026049 150.353811,82.4072482 C150.040415,82.4226346 149.774162,82.1752493 149.759119,81.8546976 C149.744076,81.5341459 149.985939,81.2618141 150.299336,81.2464277 L150.542206,81.231337 L150.661371,81.2232113 C151.90977,81.1001643 153.202429,80.5418096 154.345282,79.6294047 C155.389397,78.793614 156.359743,77.6432408 157.308526,76.109797 C158.257308,74.5763531 158.824762,73.2495353 159.072172,71.9633462 C159.131794,71.6608813 159.412364,71.4589981 159.71083,71.5038015 C160.009296,71.5486049 160.221322,71.8244326 160.193461,72.1316651 C160.052828,73.4777545 160.00353,74.8321917 160.045923,76.1852503 C160.067486,76.6890464 160.115152,77.2764216 160.308087,77.810399 C160.455054,78.2713394 160.750268,78.6678073 161.145649,78.9352341 C161.68246,79.2625854 162.440578,79.2834802 163.528955,78.9863102 C164.028737,78.8530073 164.521227,78.6925871 165.004335,78.5057305 C165.474187,78.2828529 165.934959,78.082031 166.366224,77.8939781 C166.6474,77.7756138 166.96982,77.9049683 167.097334,78.1872986 C167.224849,78.4696289 167.112136,78.8045881 166.841751,78.9468423 C166.387787,79.1790064 165.924367,79.3875671 165.451489,79.5725245 C164.305232,80.119271 163.123793,80.8006726 162.273747,81.7513846 C161.151323,83.0015883 160.254746,84.5686959 159.607849,86.4085964 C159.265346,87.3885731 158.977748,88.3877262 158.746454,89.4011916 C158.688804,89.6651968 158.46049,89.8534622 158.196023,89.8550725 L158.196023,89.8550725 Z M154.032047,81.2545534 C155.199867,81.4333198 156.196316,81.865145 156.932871,82.5163653 C158.005359,83.4659165 158.458187,84.7718395 158.648852,85.7213907 C159.338876,83.8640779 160.276309,82.2667889 161.43959,80.9713132 C161.634328,80.7541067 161.841632,80.5490469 162.060384,80.3572392 C161.536362,80.3486862 161.023118,80.2036622 160.569116,79.9358613 C159.950531,79.5319947 159.484667,78.9249071 159.248083,78.2143645 C158.999538,77.5178722 158.941658,76.7935202 158.917825,76.2409697 C158.90988,76.0505951 158.904206,75.8544165 158.900801,75.6535945 C158.712406,76.0018407 158.503583,76.3651775 158.273197,76.73664 C157.25178,78.3838443 156.198586,79.6317264 155.048924,80.5499354 C154.725324,80.8072013 154.385642,81.0425749 154.032047,81.2545534 L154.032047,81.2545534 Z" id="Shape" fill="#FFE69E"></path>
                                    <path d="M85.7388101,23.1872961 C85.3722202,23.1874496 85.0717029,22.9496818 85.059972,22.6502029 C84.9399914,19.4424548 85.1215486,16.231912 85.6030425,13.0468871 C85.6495317,12.7425979 85.9890172,12.5267261 86.3613047,12.564724 C86.7335922,12.6027218 86.997704,12.8802003 86.951215,13.1844895 C86.4750629,16.3126333 86.2935056,19.4660443 86.4081445,22.616912 C86.4195699,22.9229789 86.1254797,23.1787495 85.7510292,23.1884058 L85.7388101,23.1872961 Z" id="Path" fill="#F6A887"></path>
                                    <path d="M90.2082316,20.2898551 C90.1103457,20.2900246 90.013906,20.2662935 89.9273376,20.2207296 C87.2389329,18.8241337 84.4503024,17.6284269 81.5844208,16.6434604 C81.3736231,16.5771067 81.2155463,16.4018875 81.1715823,16.1858523 C81.1276183,15.969817 81.2046946,15.7470072 81.3728774,15.6039548 C81.5410601,15.4609025 81.7738481,15.420149 81.980834,15.4975216 C84.9047125,16.5017592 87.749837,17.7209738 90.4927736,19.1451236 C90.7421634,19.2739055 90.8706533,19.5562692 90.8036274,19.8282423 C90.7366014,20.1002154 90.4915028,20.2910186 90.2106636,20.2898551 L90.2082316,20.2898551 Z" id="Path" fill="#F6A887"></path>
                                    <path d="M82.7098,21.2560386 C82.48059,21.2554312 82.2728045,21.1264625 82.1780323,20.9259797 C82.0832601,20.725497 82.1189134,20.490334 82.2692766,20.3241472 C84.2328722,18.1642456 86.4650728,16.2440836 88.9157906,14.6067474 C89.0870859,14.4822358 89.3155827,14.4577714 89.5112126,14.5429975 C89.7068424,14.6282236 89.8382244,14.8094692 89.8535707,15.0152911 C89.8689169,15.221113 89.7657656,15.4184956 89.5847769,15.5296348 C87.2129024,17.1146988 85.0523469,18.9732216 83.151495,21.0635826 C83.0401211,21.1860208 82.8790612,21.256198 82.7098,21.2560386 L82.7098,21.2560386 Z" id="Path" fill="#F6A887"></path>
                                    <path d="M68.0758209,80.2119211 C67.1533625,77.966289 65.9172218,76.1625918 64.4010905,74.8507065 C62.5794094,73.2743563 60.2848812,72.4032459 58.1042081,72.4670423 C56.5125607,72.5111198 54.8790889,73.0249705 53.2502644,73.9935153 C50.7617178,75.473591 48.7053559,77.7517012 47.3042414,80.58194 C44.7924592,85.655491 44.7785178,91.9492924 47.2682261,97.4183809 C48.0103545,99.0519318 49.0776075,100.517657 50.4050494,101.726375 L50.4050494,101.726375 C52.3022466,103.440758 54.5108026,104.347826 56.7333001,104.347826 C57.1479056,104.347826 57.5619117,104.316369 57.9717644,104.253871 C59.8504942,103.954053 61.6264329,103.197167 63.1428758,102.049997 C65.1179127,100.564122 66.7130455,98.4808803 67.8725083,95.8559499 C70.0566364,90.8833359 70.1299855,85.2394411 68.0758209,80.2119211 L68.0758209,80.2119211 Z" id="Path" fill="#FFE69E"></path>
                                    <path d="M50.8078121,92.7536232 C50.6292546,92.7538363 50.4610831,92.6682992 50.3541624,92.522883 C50.2472418,92.3774667 50.2141291,92.1892494 50.2648396,92.0151589 C51.3484252,88.2783743 52.9407364,84.7140887 54.9954877,81.425909 C55.1039982,81.2524895 55.2952511,81.1511085 55.4972031,81.1599553 C55.6991551,81.1688021 55.881125,81.2865326 55.9745665,81.4687989 C56.0680079,81.6510651 56.0587249,81.8701766 55.9502143,82.0435961 C53.9516916,85.2407032 52.4035022,88.7067499 51.3507847,92.3406812 C51.2799851,92.5856131 51.0588745,92.7537723 50.8078121,92.7536232 L50.8078121,92.7536232 Z" id="Path" fill="#FFFFFF"></path>
                                    <path d="M54.637237,93.7198068 C54.5764667,93.7198068 54.5161221,93.7088568 54.4586688,93.6874979 C54.1817702,93.5791065 54.0383256,93.2495533 54.1378876,92.9505275 C54.6664428,91.3434464 55.2849044,89.7724322 55.9898644,88.2461426 C56.0741699,88.0601003 56.2444856,87.9370977 56.4360796,87.9238842 C56.6276736,87.9106708 56.8111262,88.0092754 56.9167128,88.1822215 C57.0222994,88.3551677 57.0338069,88.5758991 56.9468616,88.7605225 C56.2612883,90.2450043 55.6596153,91.7728668 55.1451405,93.3357358 C55.0690307,93.5674277 54.8651231,93.721614 54.637237,93.7198068 L54.637237,93.7198068 Z" id="Path" fill="#FFFFFF"></path>
                                    <path d="M64.2412832,104.347826 C64.1624308,104.348256 64.0843152,104.332538 64.0116963,104.301621 C63.8717708,104.241163 63.7614619,104.12724 63.7050536,103.98493 C63.6486454,103.842621 63.6507619,103.683592 63.7109374,103.542854 C65.5935501,99.1473139 66.01599,94.0276534 64.9346357,88.7359132 C64.0495781,84.402738 62.6020326,79.6688133 58.5808179,77.4017496 C56.7315767,76.343242 54.4954181,76.220491 52.5426821,77.070294 C50.5636429,77.9306926 49.1654586,79.2784579 47.6765875,81.0373668 C46.7582398,82.1148861 45.8513715,83.2778678 45.5758672,84.604845 C45.5023101,84.9059296 45.2055466,85.0948376 44.9036063,85.0327801 C44.601666,84.9707225 44.4023259,84.6798507 44.4520393,84.3738655 C44.7826445,82.7812619 45.7939748,81.4866219 46.8030093,80.2936128 C48.3963425,78.4111299 49.9024326,76.9628885 52.0835083,76.0204922 C54.3642672,75.0244122 56.9778116,75.1651429 59.139862,76.4004535 C63.5651497,78.8938771 65.1206011,83.9211457 66.0584636,88.5083984 C67.1868833,94.0334279 66.7391888,99.3921521 64.7647414,104.004813 C64.672796,104.213031 64.4677502,104.34739 64.2412832,104.347826 Z" id="Path" fill="#000000"></path>
                                    <path d="M54.4911048,50.4401737 C53.9344002,48.5884297 52.9483039,47.0734717 51.6404532,46.0422817 C49.7157135,44.5273236 46.9275609,44.0458702 44.3650994,44.7865678 C42.1035593,45.4393076 40.0028964,46.9982446 38.4485216,49.1740438 C37.3638554,50.7052341 36.5928892,52.4358998 36.1800371,54.2663398 C35.4647701,57.3552803 35.6453229,60.7370278 36.6765574,63.5447347 C36.7714634,63.8028215 36.8767859,64.059751 36.9902101,64.3085791 L36.9902101,64.3085791 C37.722838,65.9207537 38.796896,67.2574814 40.096645,68.1764094 C41.3430556,69.0770871 42.8411894,69.5629473 44.3789881,69.5652174 C45.1099792,69.5647157 45.8374403,69.4638568 46.5409927,69.2654663 C49.5235868,68.4310242 52.310582,65.9091803 53.6415805,62.848016 C54.5385578,60.7833214 55.004986,58.3922569 55.0674851,55.5370991 C55.1056789,53.5013381 54.9251261,51.8810621 54.4911048,50.4401737 Z" id="Path" fill="#FFE69E"></path>
                                    <path d="M41.1310219,59.9033816 C41.0407788,59.9033816 40.9519436,59.8807883 40.8725004,59.8376586 C40.7430537,59.7682211 40.6463257,59.649774 40.6036348,59.5084225 C40.5609438,59.367071 40.5757943,59.2144179 40.6449131,59.0841072 C41.7212113,57.0539759 42.9883193,55.1325433 44.428828,53.3462086 C44.6210284,53.1073844 44.9690024,53.0707564 45.2060496,53.2643977 C45.4430968,53.4580389 45.4794523,53.8086213 45.2872519,54.0474455 C43.8922431,55.7802652 42.665459,57.6439267 41.6237594,59.6128176 C41.525763,59.7942885 41.336056,59.9061375 41.1310219,59.9033816 L41.1310219,59.9033816 Z" id="Path" fill="#FFFFFF"></path>
                                    <path d="M44.0758299,61.8357488 C43.9939995,61.8363152 43.9129544,61.8208907 43.8379713,61.7904637 C43.5367464,61.6700999 43.3973435,61.3460553 43.5263766,61.0661563 C43.9983997,60.049291 44.5945682,59.0860787 45.3031802,58.1954258 C45.4982582,57.9499843 45.8707171,57.897832 46.1350905,58.0789404 C46.3994639,58.2600488 46.455639,58.6058358 46.260561,58.8512773 C45.6054692,59.6731984 45.0543769,60.5623427 44.6181475,61.5011824 C44.5250416,61.7028387 44.3121484,61.8341705 44.0758299,61.8357488 L44.0758299,61.8357488 Z" id="Path" fill="#FFFFFF"></path>
                                    <path d="M43.5746204,70.531401 C43.2903719,70.5325278 43.0461139,70.331806 42.9947066,70.0548446 C42.9432992,69.7778833 43.0995035,69.5042082 43.3655645,69.4050893 C46.2168437,68.3089012 48.5145528,66.1396607 49.7570366,63.3709749 C50.4018213,61.8990978 50.7870478,60.1456442 50.9315078,58.0117133 C51.0924104,55.6974338 50.9138907,53.8858032 50.3665872,52.3103711 C49.7112323,50.4010032 48.4486757,48.8790939 46.9148164,48.1286111 C44.7479171,47.0744446 41.7624114,47.4758656 39.3089411,49.1501986 C37.2725964,50.5461175 35.747876,52.5583862 34.9633977,54.8852834 C34.8993792,55.0851364 34.7317604,55.2353999 34.5246557,55.2785981 C34.317551,55.3217963 34.1030049,55.2512452 33.9630814,55.0939307 C33.8231578,54.9366162 33.7795067,54.716879 33.8488246,54.5187685 C34.7145212,51.9520286 36.396634,49.732401 38.6430159,48.1926058 C39.9167542,47.3144604 41.372617,46.7296642 42.9039973,46.4810396 C44.5365123,46.2285516 46.1020823,46.4368251 47.4327582,47.0837529 C49.2484906,47.9668792 50.7212775,49.7319682 51.4882071,51.9240761 C52.0871874,53.6519318 52.2868475,55.6090048 52.1142003,58.0838527 C51.9556467,60.3527542 51.5387094,62.2307065 50.8398991,63.8259188 C49.4878996,66.893633 46.9489577,69.294915 43.793072,70.4906714 C43.7235358,70.5179002 43.6493905,70.5317224 43.5746204,70.531401 L43.5746204,70.531401 Z" id="Path" fill="#000000"></path>
                                    <path d="M65.1978567,25.1226785 C64.5758979,23.1077961 63.4404482,21.5859672 62.0026735,20.8404607 C60.233726,19.9242818 57.9224396,20.1660677 56.1177208,21.4567777 C54.2126116,22.8150455 53.2606339,24.909338 52.799069,26.4276112 C51.9601748,29.1773332 51.9659443,31.9626119 52.8140699,34.2690597 C53.154472,35.2077595 53.6721077,36.0681181 54.3372341,36.8007002 C54.7184981,37.2167537 55.1546956,37.5758194 55.6330776,37.8674027 C56.4987948,38.3828552 57.4825999,38.6520496 58.483241,38.647343 C59.6245185,38.652408 60.7410918,38.3060343 61.6888094,37.652877 C63.1888954,36.609879 64.3658859,34.8012257 65.1090054,32.4248496 C65.864818,29.9821009 65.8982814,27.3911991 65.1978567,25.1226785 Z" id="Path" fill="#FFE69E"></path>
                                    <path d="M62.1764129,27.0531401 C61.8358596,27.0532054 61.5578593,26.7921534 61.5510483,26.4659007 C61.5208795,25.2675596 61.0102716,24.1263729 60.1252169,23.2792285 C59.9457601,23.1339749 59.8663943,22.9046069 59.9197385,22.6853933 C59.9730826,22.4661798 60.1501374,22.2941024 60.3781344,22.239884 C60.6061314,22.1856656 60.8466071,22.2584528 61.0007274,22.4283307 C62.116497,23.4945828 62.7613906,24.9312852 62.8017775,26.4407333 C62.8054668,26.5996683 62.7430932,26.7534942 62.6283862,26.8683513 C62.5136792,26.9832084 62.3560411,27.049682 62.1901709,27.0531401 L62.1764129,27.0531401 Z" id="Path" fill="#000000"></path>
                                    <path d="M54.7273198,31.884058 C54.605235,31.884156 54.4858945,31.8508258 54.3845691,31.7883318 C54.247209,31.7049272 54.1515883,31.5748586 54.1187492,31.4267485 C54.0859101,31.2786385 54.1185435,31.1246237 54.2094681,30.9985963 C55.3556962,29.4122876 56.5689842,27.8362353 57.8195277,26.3148833 C57.9526289,26.1520288 58.1702976,26.0667064 58.3905401,26.0910563 C58.6107826,26.1154061 58.800139,26.2457289 58.8872803,26.4329332 C58.9744217,26.6201375 58.9461093,26.8357825 58.8130082,26.998637 C57.5773669,28.5028952 56.3839485,30.0607141 55.2451715,31.6299289 C55.1298733,31.7889249 54.9354395,31.8843405 54.7273198,31.884058 Z" id="Path" fill="#FFFFFF"></path>
                                    <path d="M131.229435,156.07272 C128.762762,141.832843 126.807192,128.387371 124.736249,114.153318 C123.80519,107.758477 122.84298,101.145816 121.838082,94.5051995 C120.827415,87.837792 114.630738,83.2064832 108.024487,84.189588 C100.824065,85.2565595 93.7840116,86.3165422 86.8247193,87.5454232 C78.8928336,88.946697 74.309069,93.202935 73.585681,99.8505406 C73.0088166,105.11318 74.1475469,110.895327 75.1535985,115.996057 C75.2835852,116.655343 75.41088,117.307251 75.5354827,117.951783 C75.9912056,120.321019 76.4815403,122.727529 76.9545692,125.045513 C77.6883407,128.64363 78.4474943,132.362888 79.0924287,136.040212 C79.3708619,137.622809 79.6427573,139.18871 79.908115,140.737916 C81.4414206,149.613815 82.890504,157.996996 85.2268049,166.897356 C85.8809691,169.386568 87.0946919,171.329481 88.7387554,172.515264 C90.0240094,173.447117 91.5250106,173.913043 93.2198382,173.913043 C93.8498521,173.910687 94.478413,173.851826 95.0981088,173.737156 C97.2659652,173.343448 99.3865188,172.953235 101.482844,172.57234 C108.42483,171.291042 114.981471,170.091282 122.120745,168.96141 C125.033169,168.498472 127.639193,166.873423 129.353164,164.451461 C131.067135,162.029499 131.745282,159.013783 131.235203,156.082038 L131.229435,156.07272 Z" id="Path" fill="#5893ED"></path>
                                    <path d="M118.272731,107.246377 C117.982795,107.248584 117.73712,107.034552 117.701176,106.748422 C117.273006,103.325316 116.569646,99.9418459 115.597852,96.6305129 C115.210338,95.3095005 114.724516,93.7884036 113.874042,92.5117281 C112.999562,91.1929894 111.831304,90.3028408 110.58417,90.0106719 C110.277032,89.93784 110.087414,89.6311782 110.160648,89.3257236 C110.233881,89.020269 110.542233,88.8316911 110.849372,88.904523 C112.38114,89.268313 113.794024,90.3278513 114.828539,91.8887378 C115.76589,93.3029713 116.283719,94.9150157 116.695238,96.3144704 C117.683847,99.6831747 118.399814,103.125154 118.836284,106.607453 C118.874622,106.918825 118.652079,107.20222 118.339031,107.240675 C118.317081,107.244024 118.294933,107.245923 118.272731,107.246377 Z" id="Path" fill="#000000"></path>
                                    <path d="M86.3484765,115.942029 L86.2948365,115.942029 C85.0394326,115.942029 83.8525051,115.206903 83.0285036,113.939485 C82.3619982,112.914764 82.0333106,111.711831 81.7536979,110.574555 C81.3143065,108.783053 80.9354028,106.951686 80.6272582,105.132045 C80.6044326,104.998386 80.5804658,104.862381 80.556499,104.724032 C80.283734,103.143571 79.9733068,101.35324 80.4138395,99.7680885 C80.7386135,98.6594365 81.4342748,97.704338 82.3779761,97.0714547 C83.6447928,96.1979799 85.2813831,95.9072124 86.726239,95.6516184 C86.887159,95.6234796 87.0457964,95.5953408 87.2021512,95.5660296 C89.0281934,95.2318815 90.8941802,95.0102886 92.6973969,94.7945579 C94.1696434,94.6198629 95.8347656,94.5225496 97.0068564,95.5918235 C97.7909132,96.3081901 98.1127532,97.343463 98.343291,98.3552869 C98.8248898,100.422733 99.1680759,102.52164 99.3704397,104.637271 L99.3704397,104.637271 C99.5526589,106.547146 99.5648832,108.470117 99.4069605,110.382274 C99.3453316,111.065812 99.2483231,111.853698 98.8694194,112.555995 C98.343291,113.5303 97.434835,114.06142 96.7660471,114.335773 C95.9614472,114.665232 95.1260329,114.795373 94.3180093,114.921998 L90.6054373,115.50236 C89.2210691,115.719264 87.7910498,115.942029 86.3484765,115.942029 Z M94.2312723,95.8556246 C93.763741,95.8631616 93.2969881,95.8976075 92.8332088,95.9588002 C91.0425462,96.172186 89.1948197,96.3926065 87.4018746,96.7208923 L86.920256,96.8076536 C85.5883865,97.0421435 84.0784779,97.3106344 83.0148083,98.0445878 C82.2983385,98.525408 81.7666492,99.2469218 81.5106061,100.085822 C81.1431151,101.41069 81.4284342,103.060327 81.6806562,104.515336 C81.7046231,104.654858 81.7285899,104.792035 81.7514154,104.928039 C82.0538536,106.719541 82.427051,108.521596 82.8595947,110.28496 C83.1255121,111.369476 83.4119725,112.414129 83.9780455,113.284086 C84.5874871,114.222046 85.4331729,114.762545 86.2982604,114.766062 L86.3473352,114.766062 C87.7054541,114.766062 89.0863985,114.549159 90.4319633,114.340463 L94.1422527,113.761273 C94.8863649,113.644028 95.6567264,113.526783 96.3380684,113.245395 C97.0410947,112.958145 97.5832009,112.510269 97.8662375,111.986184 C98.1378612,111.483204 98.215468,110.838356 98.2656842,110.273236 C98.4177851,108.433254 98.4055604,106.582828 98.2291633,104.745137 L98.2291633,104.745137 C98.0330704,102.683377 97.7001849,100.637777 97.2328291,98.6226054 C97.0445185,97.8018908 96.7957202,96.9671067 96.2490489,96.4688157 C95.7297681,95.9986635 95.0130466,95.8556246 94.2312723,95.8556246 Z" id="Shape" fill="#000000"></path>
                                    <path d="M83.1184896,102.987656 C83.21514,103.622803 83.5569686,104.202807 84.0793736,104.618053 C85.2216243,105.55019 87.1938386,105.580549 88.2327944,104.498865 C89.0483446,103.647686 89.0555512,102.306263 88.5186573,101.279675 C88.0634386,100.407132 87.2046486,99.6796378 86.178905,99.5390864 C84.897326,99.3636782 83.9052133,100.255337 83.409157,101.274053 C83.1392977,101.807504 83.0384252,102.402188 83.1184896,102.987656 Z" id="Path" fill="#000000"></path>
                                    <path d="M86.6033211,105.313929 C85.738426,105.319565 84.9003634,105.02967 84.242769,104.497389 C83.6338154,104.004443 83.2357703,103.317823 83.1233918,102.566485 C83.0304361,101.891138 83.1435454,101.204696 83.4493451,100.588325 C84.2706085,98.8827123 85.6857797,98.4310325 86.7355584,98.5760976 C87.841016,98.7288555 88.874555,99.4970408 89.4336637,100.579534 C90.2108479,102.086232 89.809496,103.546773 89.0671111,104.33474 C88.4500036,104.984236 87.5347822,105.313929 86.6033211,105.313929 Z M86.3458063,99.6475866 C85.4897437,99.6475866 84.837837,100.34655 84.5049237,101.043302 C84.2910529,101.469359 84.2105428,101.944561 84.2729284,102.412628 L84.2729284,102.412628 C84.3480758,102.901824 84.60868,103.348353 85.0060335,103.66876 C85.9258949,104.428153 87.4512639,104.394085 88.2052486,103.598425 C88.775957,102.997284 88.8525155,101.949959 88.3920048,101.060886 C87.9999328,100.299294 87.300467,99.7640923 86.5696818,99.6629864 C86.4955838,99.652424 86.4207376,99.6472803 86.3458063,99.6475866 Z" id="Shape" fill="#000000"></path>
                                    <path d="M85.5730993,103.381643 C85.4210317,103.381997 85.2807891,103.287759 85.2068844,103.135559 C85.0072173,102.717746 84.9693189,102.223313 85.102371,101.772052 C85.1778702,101.521919 85.4161363,101.389238 85.6345532,101.4757 C85.8529701,101.562163 85.9688277,101.835028 85.8933284,102.085161 C85.8372268,102.278858 85.8532548,102.490464 85.9376421,102.670205 C85.9915313,102.78118 86.0047165,102.912127 85.9742968,103.034235 C85.9438772,103.156344 85.8723448,103.259611 85.7754373,103.321318 C85.7136251,103.360966 85.6439467,103.38174 85.5730993,103.381643 L85.5730993,103.381643 Z" id="Path" fill="#FFFFFF"></path>
                                    <path d="M85.0775088,110.436626 C85.3075115,111.615328 86.2484316,112.683491 87.4796224,112.972058 C88.7108132,113.260625 90.1498675,112.653238 90.6184826,111.538532 C90.7622787,111.17456 90.8307596,110.787826 90.8201962,110.399392 C90.8140464,109.51391 90.5016363,108.603994 89.8288477,107.989626 C89.2143765,107.437058 88.3720834,107.171448 87.5300508,107.264718 C85.8277849,107.464853 84.7687886,108.85649 85.0775088,110.436626 Z" id="Path" fill="#000000"></path>
                                    <path d="M87.6168448,113.043471 C87.3653101,113.044011 87.1146521,113.015147 86.87047,112.957514 C85.4973772,112.632944 84.3908469,111.463587 84.1159914,110.046561 C83.8476756,108.69051 84.5272176,107.32421 85.7975957,106.665497 C87.0679737,106.006784 88.6385576,106.206354 89.6841847,107.159356 C90.3950178,107.817544 90.81204,108.818396 90.820333,109.905197 C90.8309123,110.355566 90.7504638,110.80366 90.5833886,111.224965 C90.1296401,112.318552 88.8892362,113.043471 87.6168448,113.043471 Z M85.2817579,109.841867 C85.4701286,110.813315 86.2401979,111.643401 87.1548033,111.860535 C88.0883642,112.086716 89.1557987,111.599295 89.4863361,110.807661 C89.5961923,110.521441 89.6476658,110.217799 89.6379805,109.913114 C89.6320569,109.128264 89.3500931,108.421448 88.8643571,107.973609 C88.1942108,107.344462 87.1715639,107.208347 86.3466855,107.638505 C85.5218072,108.068664 85.0892468,108.963642 85.2817579,109.841867 L85.2817579,109.841867 Z" id="Shape" fill="#000000"></path>
                                    <path d="M94.3125181,107.246377 C93.9173691,107.227984 93.5421531,107.02265 93.2613873,106.671154 C93.0955006,106.486766 92.963068,106.25938 92.8731227,106.004506 L92.8731227,106.004506 C92.6347803,105.294043 92.7594954,104.472244 93.1889649,103.923292 C93.5811501,103.403664 94.1852794,103.23995 94.7118472,103.510605 C95.1887966,103.758502 95.5334943,104.295024 95.627186,104.935328 C95.7121512,105.546988 95.5780736,106.174737 95.2610505,106.649568 C95.1139883,106.878443 94.9213019,107.053757 94.7027944,107.15749 C94.5777844,107.215534 94.4457141,107.245613 94.3125181,107.246377 L94.3125181,107.246377 Z M93.7985202,105.508011 C93.8350214,105.596435 93.8849168,105.674955 93.9453767,105.739116 C94.0912274,105.91054 94.2702717,106.008315 94.3618056,105.966411 C94.411752,105.937453 94.4555354,105.893931 94.4895507,105.839431 C94.61355,105.655581 94.6679068,105.412629 94.6384189,105.174052 C94.6068327,104.961544 94.4937791,104.78267 94.3366589,104.696604 C94.1874168,104.613856 94.0129536,104.66149 93.9041362,104.814696 C93.7601601,104.998812 93.717026,105.273572 93.7944967,105.51309 L93.7985202,105.508011 Z" id="Shape" fill="#000000"></path>
                                    <path d="M87.3198348,111.111111 C87.2157685,111.111188 87.1134596,111.090117 87.0229219,111.04996 C86.3853283,110.759635 85.9923008,110.226446 85.9903382,109.649135 C85.9903382,109.389345 86.2594322,109.178744 86.5913764,109.178744 L86.5913764,109.178744 C86.9233207,109.178744 87.1924147,109.389345 87.1924147,109.649135 C87.1974386,109.885746 87.3583869,110.103513 87.6179498,110.224894 C87.8556867,110.330337 87.9726185,110.54802 87.9025614,110.754733 C87.8325044,110.961447 87.593093,111.105158 87.3198348,111.104525 L87.3198348,111.111111 Z" id="Path" fill="#FFFFFF"></path>
                                    <path d="M155.231468,165.877394 C147.966793,156.163542 139.369651,147.498314 129.687934,140.131565 C125.586282,137.018127 120.069625,133.175914 113.758047,131.112973 C110.931532,130.190472 108.86264,130.207769 107.445303,131.172935 C105.515114,132.484039 105.287828,135.324186 106.054775,137.338696 C106.519978,138.520592 107.201147,139.607657 108.064223,140.545537 C108.261204,140.761172 108.453524,140.980266 108.647009,141.200513 C108.864971,141.448435 109.089927,141.704428 109.316048,141.951197 C109.64474,142.308666 111.774242,144.066029 112.23814,144.362382 C112.50658,144.535544 112.583337,144.890639 112.409964,145.157275 C112.23659,145.42391 111.878142,145.502035 111.607565,145.33216 C110.285805,144.493838 107.81479,142.998235 106.807735,142.554282 C105.571062,142.008853 104.529039,141.837038 103.623389,142.02961 C102.202556,142.331728 101.150043,143.220788 100.735099,144.46847 C100.30034,145.774961 100.450699,147.351283 101.158202,148.919533 C101.819082,150.382849 102.878588,151.687034 103.905458,152.905887 C106.661079,156.160788 109.604799,159.255184 112.721853,162.173555 C112.94668,162.384787 112.96497,162.733194 112.763469,162.96633 C112.561968,163.199467 112.211234,163.235701 111.965396,163.048777 C109.560818,161.203777 106.453401,159.926114 102.463644,159.128151 C101.513702,158.940192 100.422726,158.798358 99.5298966,159.184655 C98.5123513,159.625148 97.7605567,160.816327 97.6160256,162.218527 C97.2838373,165.420756 99.6429572,168.305876 101.736326,170.461067 C103.898464,172.688905 106.259915,174.80489 108.543273,176.851687 C110.701914,178.787784 112.932821,180.788457 115.008707,182.890604 C118.843442,186.777789 122.025457,190.89214 124.508127,195.169082 C140.011803,194.630957 155.513925,194.003272 171.014493,193.286029 C166.890413,183.553349 161.590875,174.350226 155.231468,165.877394 L155.231468,165.877394 Z" id="Path" fill="#FFFFFF"></path>
                                    <path d="M156.01546,164.80448 C148.73173,154.897276 140.111747,146.059762 130.404158,138.546857 C126.255889,135.341012 120.673508,131.387913 114.230428,129.246408 C111.054066,128.190228 108.670057,128.257842 106.932441,129.453914 C104.499778,131.132611 104.182374,134.550625 105.121845,137.059345 C105.634958,138.390869 106.387343,139.615918 107.341359,140.673207 C107.415498,140.757142 107.489636,140.839911 107.562616,140.923846 C107.515121,140.90053 107.468785,140.879547 107.424765,140.859729 C105.964009,140.204571 104.694391,140.006391 103.545248,140.254698 C101.719592,140.649892 100.360777,141.830809 99.817482,143.496682 C99.2950388,145.092611 99.4606915,146.993968 100.280846,148.837038 C100.999061,150.451618 102.10766,151.847035 103.176873,153.1387 C104.946925,155.267381 106.809649,157.342437 108.737244,159.341719 C107.012371,158.58514 105.060449,157.989435 102.854835,157.544114 C101.733493,157.310962 100.422172,157.155916 99.2463855,157.675845 C97.5632148,158.41727 96.8044558,160.240522 96.6561792,161.691895 C96.2773789,165.404847 98.8154568,168.590875 101.068566,170.951543 C103.245219,173.232939 105.607219,175.381438 107.890446,177.468152 C110.02308,179.413809 112.227536,181.423583 114.261705,183.524286 C117.852778,187.220917 120.846111,191.121557 123.218536,195.169082 L123.875355,195.145767 L124.532174,195.122452 C122.064759,190.79864 118.902298,186.639202 115.091127,182.709418 C113.027998,180.584234 110.805007,178.561637 108.665423,176.604323 C106.396096,174.535095 104.049156,172.395922 101.900304,170.14367 C99.8151652,167.964861 97.4751756,165.048124 97.8053226,161.810803 C97.9489656,160.393237 98.6961405,159.189004 99.707433,158.743683 C100.594776,158.353153 101.676731,158.496542 102.623153,158.686561 C106.588393,159.487439 109.676715,160.784933 112.066517,162.650152 C112.310844,162.839123 112.659424,162.802493 112.859686,162.566801 C113.059949,162.33111 113.041771,161.978885 112.818325,161.765338 C109.720425,158.814986 106.794795,155.686679 104.056107,152.396109 C103.035547,151.168562 101.982552,149.845422 101.325733,148.36607 C100.622577,146.785297 100.473142,145.187037 100.90523,143.866229 C101.317624,142.604874 102.363669,141.706072 103.775771,141.400642 C104.675856,141.20596 105.711476,141.379659 106.940549,141.931064 C107.941416,142.379882 110.397247,143.891876 111.710885,144.739385 C111.979799,144.911121 112.336045,144.83214 112.508353,144.562582 C112.680661,144.293025 112.604375,143.934039 112.337585,143.758979 C111.874221,143.459378 109.760121,141.682757 109.433449,141.321371 C109.208718,141.071897 108.985144,140.813098 108.768521,140.562459 C108.577384,140.339799 108.386246,140.118304 108.189316,139.900307 C107.331544,138.952149 106.65456,137.85317 106.192216,136.658323 C105.429982,134.626399 105.655872,131.750465 107.5742,130.424993 C108.986303,129.449251 111.039006,129.429433 113.848152,130.364374 C120.120946,132.449922 125.603704,136.331909 129.680151,139.481798 C147.764835,153.512935 161.916835,172.031745 170.749286,193.223425 L171.364402,193.195447 L171.980676,193.167469 C167.831361,183.091768 162.469585,173.56631 156.01546,164.80448 L156.01546,164.80448 Z" id="Path" fill="#000000"></path>
                                    <path d="M125.032837,172.94686 C124.902919,172.947126 124.776911,172.901468 124.676186,172.81763 C119.793607,168.803414 114.666044,164.980129 109.434791,161.454883 C109.264831,161.340293 109.167615,161.141765 109.179762,160.934083 C109.19191,160.7264 109.311576,160.541115 109.493683,160.448023 C109.67579,160.35493 109.892673,160.368173 110.062632,160.482763 C115.323512,164.028965 120.4807,167.873205 125.390627,171.910706 C125.579422,172.065463 125.651906,172.32521 125.571375,172.558425 C125.490844,172.79164 125.274881,172.947408 125.032837,172.94686 L125.032837,172.94686 Z" id="Path" fill="#000000"></path>
                                    <path d="M127.930363,158.452915 C127.7871,158.4525 127.649132,158.396904 127.543404,158.296986 C125.776749,156.630563 124.122957,155.245052 122.372426,153.773838 C121.288709,152.863257 120.16929,151.920538 119.008411,150.899259 C115.872426,148.141329 112.823968,145.890468 108.486796,143.131348 C108.311518,143.019932 108.207065,142.820332 108.212784,142.607736 C108.218502,142.39514 108.333524,142.201847 108.51452,142.100667 C108.695517,141.999488 108.914991,142.005794 109.090268,142.117211 C113.481569,144.91085 116.576094,147.192659 119.75469,149.993439 C120.906356,151.005196 122.021168,151.943154 123.09452,152.850164 C124.85772,154.33328 126.523028,155.734266 128.313868,157.418543 C128.490029,157.584032 128.549502,157.844497 128.463516,158.073927 C128.377529,158.303357 128.163811,158.454449 127.925757,158.454106 L127.930363,158.452915 Z" id="Path" fill="#000000"></path>
                                    <path d="M70.8953216,196.874001 C71.3612322,195.927743 71.8585919,194.988459 72.3722584,194.068937 C75.9574411,187.654373 80.8343611,181.711775 87.2814,175.900537 C89.0285651,174.325377 90.9609296,172.946676 92.8292314,171.614474 C94.6975332,170.282272 96.6322273,168.900083 98.3560968,167.33771 C100.168489,165.693963 102.140456,163.145807 101.242413,160.337255 C100.899969,159.267774 99.6047374,158.407539 98.5459554,158.06112 C96.7032787,157.457792 94.7126753,157.808861 93.0074422,158.233167 C90.6778889,158.814407 88.4275403,159.528169 86.3356014,160.218682 C86.0573946,160.311322 85.7535679,160.18304 85.6264438,159.919261 C85.4993196,159.655482 85.5885638,159.338512 85.8347474,159.179425 C88.1806076,157.654252 90.6872071,156.335999 93.1122721,155.060759 C94.4459414,154.363271 95.8238723,153.634396 97.155212,152.885759 C98.15692,152.321956 99.304225,151.650042 100.252353,150.808407 C101.23659,149.934222 101.921478,148.936814 102.232474,147.925456 C102.412081,147.372552 102.460332,146.785524 102.373412,146.210799 C102.164917,144.991357 101.123606,143.857939 99.7212151,143.324361 C98.213994,142.750096 96.5029371,142.859369 95.3474786,142.998866 C94.1629007,143.137201 92.8711634,143.428984 91.2812432,143.918388 C91.0015177,144.008088 90.6986504,143.875794 90.5748888,143.609847 C90.4511273,143.3439 90.5452339,143.027596 90.7943665,142.872156 L94.4517653,140.514647 C95.6246955,139.760197 96.837228,138.979011 97.7061514,137.910691 C98.6181715,136.790061 98.9874058,135.469483 98.6903877,134.369777 C98.4376312,133.439793 97.7329413,132.720218 97.186661,132.277313 C95.6514853,131.052059 93.5036371,130.434783 90.7873779,130.434783 C90.2376033,130.434783 89.6649214,130.45997 89.0693323,130.510344 C85.7357414,130.793989 82.2670364,131.655387 78.1530451,133.22241 C75.3735721,134.2821 72.6663193,135.52161 70.0485289,136.933046 C62.8793284,140.800617 56.5254716,146.152675 51.254857,150.882806 C45.4575171,156.104077 40.1051805,161.797365 35.2531549,167.903838 C30.4158093,173.990348 26.0337375,180.42383 22.1424285,187.152181 C20.6421961,189.739862 18.8461104,192.993643 17.3913043,196.49852 C25.0858192,197.034424 32.847891,197.097197 40.5482297,197.100685 C50.66548,197.109985 60.7811773,197.034424 70.8953216,196.874001 Z" id="Path" fill="#FFFFFF"></path>
                                    <path d="M97.5605158,154.097488 C98.609136,153.504346 99.8141802,152.793739 100.843103,151.87495 C101.980942,150.858467 102.778125,149.677998 103.148908,148.462639 C103.380314,147.735858 103.440212,146.96503 103.323871,146.211025 C103.044626,144.567673 101.753838,143.119708 99.9566999,142.432361 C98.2186553,141.767112 96.3276629,141.888066 95.056573,142.038096 C94.7761685,142.070661 94.4911292,142.11253 94.1991377,142.161377 L94.9302751,141.688026 C96.1144627,140.920431 97.4562331,140.050489 98.4376489,138.838618 C99.5801236,137.427871 100.02738,135.717063 99.635741,134.259794 C99.3727169,133.279366 98.7192122,132.347784 97.7447485,131.566232 C95.6695233,129.899619 92.675452,129.221576 88.8482779,129.548386 C85.4208541,129.841468 81.8706084,130.726529 77.6738102,132.339642 C74.8619327,133.417694 72.1231358,134.678764 69.4748748,136.114817 C62.23534,140.041185 55.8486056,145.450408 50.5556807,150.22462 C44.740391,155.491467 39.3714254,161.234486 34.50426,167.394337 C29.6573402,173.528786 25.2664006,180.012681 21.3669607,186.793571 C19.805038,189.503416 17.9221565,192.934336 16.4251208,196.637403 L17.0322777,196.682761 L17.6429106,196.726956 C19.0901224,193.220439 20.8768322,189.965136 22.3692331,187.376246 C26.2402289,180.644749 30.5994255,174.208258 35.4115193,168.118901 C40.2382165,162.009572 45.562613,156.313622 51.3296898,151.089909 C56.5727909,146.361055 62.8934795,141.006494 70.0252556,137.133626 C72.6297263,135.721088 75.3232359,134.480609 78.0886235,133.420091 C82.1811391,131.852336 85.6317368,130.990535 88.9479258,130.706757 C89.5411783,130.657135 90.1108707,130.631936 90.6570029,130.631161 C93.3590828,130.631161 95.4957189,131.248726 97.0228807,132.474553 C97.5663093,132.91185 98.2673206,133.628273 98.5187577,134.567996 C98.8130666,135.66589 98.4469185,136.989411 97.5396593,138.110566 C96.6752718,139.179384 95.4690689,139.960936 94.3022616,140.715739 L90.6639551,143.07435 C90.416123,143.229864 90.3225076,143.546315 90.4456231,143.812386 C90.5687386,144.078457 90.8700249,144.210814 91.1482902,144.121072 C92.7299107,143.631439 94.0149049,143.33952 95.1932991,143.20112 C96.3427259,143.066209 98.0448509,142.952233 99.544204,143.526767 C100.93464,144.060594 101.977466,145.194542 102.182556,146.414554 C102.269022,146.989549 102.221023,147.576851 102.042353,148.130014 C101.73414,149.141845 101.052827,150.139719 100.07257,151.014313 C99.1293907,151.856342 97.9869161,152.526243 96.9915959,153.092636 C95.667206,153.841623 94.2964682,154.56735 92.9697608,155.268653 C90.557355,156.547979 88.0638405,157.863359 85.730226,159.389246 C85.4853275,159.548407 85.3965492,159.865525 85.5230097,160.129427 C85.6494703,160.39333 85.951711,160.521672 86.2284654,160.428989 C88.3141189,159.738153 90.5527202,159.020567 92.8654782,158.442544 C94.5618096,158.018041 96.5420217,157.666808 98.3750793,158.270417 C99.4283343,158.619324 100.716805,159.477635 101.057461,160.547617 C101.950816,163.357482 99.9891434,165.90683 98.1862118,167.551345 C96.4713412,169.114449 94.5479053,170.494958 92.6881976,171.830109 C90.82849,173.16526 88.9085301,174.54228 87.1693269,176.118177 C80.7547838,181.933295 75.9033222,187.877509 72.3380135,194.295073 C71.8270284,195.215025 71.3368998,196.155911 70.8687865,197.101449 L71.5211326,197.092145 L72.1723199,197.081678 C72.5512136,196.333854 72.9451704,195.591845 73.3507141,194.861466 C76.8534532,188.556715 81.6284409,182.707869 87.9502882,176.981141 C89.6408262,175.449439 91.5352947,174.089864 93.3671937,172.775647 C95.2535514,171.421888 97.204796,170.021607 98.9694906,168.411983 C101.916055,165.725398 103.024928,162.884132 102.165175,160.194058 C101.666936,158.627465 100.008841,157.58307 98.7412274,157.170197 C96.6161783,156.472382 94.3381812,156.881767 92.5897084,157.317901 C91.9338863,157.481499 91.2850163,157.655177 90.6430985,157.838935 C91.6024991,157.313248 92.5642171,156.803844 93.5143481,156.302581 C94.8433728,155.583832 96.2222215,154.854617 97.5605158,154.097488 Z" id="Path" fill="#000000"></path>
                                    <path d="M68.2101653,154.589372 C67.9616874,154.589372 67.7410871,154.425059 67.6625114,154.181464 C67.5839358,153.937869 67.6650162,153.669645 67.8637986,153.515582 C74.4921032,148.273131 81.4275196,144.844182 91.0542055,142.051151 C91.2528161,141.993607 91.4660476,142.049929 91.6135777,142.1989 C91.7611078,142.347871 91.8205233,142.566859 91.7694428,142.773374 C91.7183623,142.979889 91.5645462,143.142556 91.3659356,143.2001 C81.8893419,145.944214 75.0705356,149.318281 68.5646139,154.462898 C68.4637681,154.545383 68.3387769,154.58998 68.2101653,154.589372 L68.2101653,154.589372 Z" id="Path" fill="#000000"></path>
                                    <path d="M74.9609711,168.115942 C74.7309213,168.115942 74.5238619,167.966162 74.4374829,167.737296 C74.3511038,167.508429 74.4026655,167.246197 74.5678413,167.07432 C78.307093,163.179453 80.868085,161.018603 86.1504841,158.512161 C86.3358915,158.418184 86.554184,158.439435 86.7208144,158.567684 C86.8874448,158.695934 86.9762419,158.911039 86.9528134,159.129686 C86.929385,159.348333 86.7974107,159.536182 86.6080059,159.620476 C81.4498719,162.0675 79.0662402,164.079201 75.3541009,167.944966 C75.248727,168.054615 75.1077313,168.115942 74.9609711,168.115942 L74.9609711,168.115942 Z" id="Path" fill="#000000"></path>
                                </g>
                            </g>
                        </g>
                    </g>
                </g>
            </g>
        </g>
    </g>
</svg>