<?xml version="1.0" encoding="UTF-8"?>
<svg width="456px" height="420px" viewBox="0 0 456 420" version="1.1" xmlns="http://www.w3.org/2000/svg" xmlns:xlink="http://www.w3.org/1999/xlink">
    <title>illustration_security</title>
    <g id="Desktop" stroke="none" stroke-width="1" fill="none" fill-rule="evenodd">
        <g id="00.00_Web-user" transform="translate(-194.000000, -2666.000000)">
            <g id="Seguro" transform="translate(0.000000, 2466.000000)">
                <g id="illustration_security" transform="translate(194.000000, 200.000000)">
                    <path d="M93.423586,0 L330.998336,0 C330.998336,18.980675 358.149586,34.39345 391.585961,34.39345 L391.585961,385.606375 C358.149586,385.606375 330.998336,401.0195 330.998336,420 L93.423586,420 C93.423586,401.0195 66.272336,385.606375 32.835961,385.606375 L32.835961,34.2507375 C66.272336,34.2507375 93.423586,18.980675 93.423586,0 Z" id="Path" fill="#C7F1F4"></path>
                    <path d="M227.170836,101.17275 C232.080461,100.079 237.843211,99.27925 242.831586,98.692125 C244.085461,98.55825 245.473211,98.4515 246.513586,99.1725 C246.993961,99.49275 247.367586,99.97225 247.474336,100.533125 C247.714086,101.520125 247.126961,102.5605 246.327211,103.173875 C245.526586,103.788125 244.512461,104.054125 243.525461,104.321 C238.642961,105.548625 232.880211,106.456 227.891836,106.988875" id="Path" fill="#FFFFFF" fill-rule="nonzero"></path>
                    <path d="M227.170836,101.17275 C232.080461,100.079 237.843211,99.27925 242.831586,98.692125 C244.085461,98.55825 245.473211,98.4515 246.513586,99.1725 C246.993961,99.49275 247.367586,99.97225 247.474336,100.533125 C247.714086,101.520125 247.126961,102.5605 246.327211,103.173875 C245.526586,103.788125 244.512461,104.054125 243.525461,104.321 C238.642961,105.548625 232.880211,106.456 227.891836,106.988875" id="Path" stroke="#000000" stroke-width="3.04906" stroke-linecap="round" stroke-linejoin="round"></path>
                    <path d="M209.029461,198.81925 C205.721086,187.187 203.026086,175.315 198.143586,164.269875 C193.261961,153.223875 185.844586,142.81925 175.306086,136.9235 C164.527836,130.893875 151.374836,130.09325 139.263086,132.547625 C127.150461,135.002 115.864711,140.445375 104.979711,146.314 C84.863636,157.17275 66.9885235,170.459625 48.953286,184.492875 C71.3104985,191.32225 93.400836,199.005625 115.171711,207.489625 C111.489711,214.24025 107.380711,221.44325 103.725836,228.220125 C103.646211,228.220125 104.046086,228.62 103.939336,228.62 C127.977336,222.483625 153.055711,219.548875 177.840961,218.61525" id="Path" fill="#73DEE4"></path>
                    <path d="M209.029461,198.81925 C205.721086,187.187 203.026086,175.315 198.143586,164.269875 C193.261961,153.223875 185.844586,142.81925 175.306086,136.9235 C164.527836,130.893875 151.374836,130.09325 139.263086,132.547625 C127.150461,135.002 115.864711,140.445375 104.979711,146.314 C84.863636,157.17275 66.9885235,170.459625 48.953286,184.492875 C71.3104985,191.32225 93.400836,199.005625 115.171711,207.489625 C111.489711,214.24025 107.380711,221.44325 103.725836,228.220125 C103.646211,228.220125 104.046086,228.62 103.939336,228.62 C127.977336,222.483625 153.055711,219.548875 177.840961,218.61525" id="Path" stroke="#73DEE4" stroke-width="3.04906" stroke-linecap="round" stroke-linejoin="round"></path>
                    <path d="M421.796211,147.648375 C377.055711,166.777625 332.767586,187.000625 288.986961,208.236875 C279.676086,191.61625 265.029461,178.143 246.646586,172.967375 C244.085461,172.246375 241.470961,171.686375 238.830211,171.259375 C202.919336,165.577125 165.595336,187.2675 150.761461,220.056375 C134.273836,256.473 151.321461,305.003125 185.604836,324.772 C187.738961,325.999625 189.926461,327.119625 192.168211,328.1075 C207.641711,334.99025 225.596711,335.790875 241.818336,330.96175 C271.725836,322.077875 294.002461,294.651 299.205211,264.236875 C299.978711,259.755125 300.379461,255.219125 300.352336,250.656875 C300.352336,245.77525 299.871961,240.81225 298.965461,235.9035 C322.256211,223.0445 346.161211,211.171625 370.225461,199.913 C375.214711,209.384 380.683461,218.96175 385.619336,228.566625 C386.873211,230.99475 389.807961,231.954625 392.262336,230.754125 C397.358336,228.246375 402.561086,225.738625 407.683336,223.28425 C410.191086,222.08375 411.231461,219.04225 409.977586,216.5345 C405.015461,206.66275 400.586211,196.63175 396.077336,186.493125 C401.973961,183.399125 408.697461,180.411 414.593211,177.316125 C420.169586,187.4005 426.251711,197.138375 432.388086,206.87625 C433.775836,209.06375 436.576711,209.838125 438.870961,208.663875 C444.100836,206.023125 447.995461,203.91525 452.984711,201.00675 C455.359461,199.619875 456.159211,196.604625 454.798586,194.23075 C446.288336,179.290125 438.551586,164.32325 429.213586,149.88925 C427.665711,147.462 424.517461,146.474125 421.796211,147.648375 Z" id="Path" fill="#FFE69E"></path>
                    <path d="M224.218569,179.691158 C237.354751,179.251303 250.541585,184.446109 259.78351,193.715917 C260.30367,194.237646 260.302398,195.082265 259.780669,195.602425 C259.25894,196.122585 258.414321,196.121312 257.894161,195.599583 C249.175677,186.854795 236.705869,181.942453 224.307853,182.357592 C223.571538,182.382247 222.954649,181.805332 222.929994,181.069017 C222.905339,180.332702 223.482254,179.715813 224.218569,179.691158 Z" id="Path" fill="#FFFFFF" fill-rule="nonzero"></path>
                    <path d="M115.331836,207.51675 C111.809961,213.465875 108.208461,219.68275 104.900086,225.764875 C122.481461,221.363625 140.116211,216.9615 158.125461,214.773125 C170.450711,213.2795 183.069961,212.82625 195.182586,215.627125 C203.613211,217.574875 211.750711,221.176375 218.500461,226.618875 C224.903711,231.7945 229.118586,239.238125 232.080461,246.89525 C233.147086,249.669875 234.001086,252.63175 233.813836,255.619875 C233.627461,258.608 232.293086,261.622375 229.812461,263.276125 C227.330961,264.93075 222.955961,264.583375 220.981086,262.3425 C221.514836,266.718375 219.487461,271.546625 215.512336,273.441 C212.951211,274.668625 209.909711,274.588125 207.268086,273.574875 C204.627336,272.56075 201.852711,270.93325 199.984586,268.799125 C201.585836,273.20125 201.772211,278.483625 198.971336,282.219 C197.450586,284.246375 195.102961,285.660375 192.594336,286.06025 C187.685586,286.860875 182.990336,283.899875 179.148211,280.7245 C175.333211,277.55 171.597836,273.84175 166.795836,272.614125 C160.072336,270.93325 153.055711,273.814625 146.946461,276.322375 C129.737836,283.44575 112.156461,289.60925 94.281086,294.784875 C79.127661,299.187 63.4402235,302.89525 47.7260985,301.508375 C32.0119735,300.120625 16.084436,292.8905 7.68048972,279.551125 C-2.56436028,263.276125 0.530435968,241.346 10.3217735,224.805 C20.1130235,208.264 35.4802985,195.8845 50.5007235,183.932 C72.5111735,190.54875 93.961711,199.086125 115.331836,207.51675 Z" id="Path" fill="#FFFFFF" fill-rule="nonzero"></path>
                    <path d="M49.6701109,182.888189 L47.5547992,184.573314 L45.499102,186.218026 L43.6051746,187.74588 L42.3758176,188.745659 L40.5805309,190.218612 L39.4155053,191.183627 L38.2754121,192.135763 L37.1597941,193.075607 L36.0681938,194.003748 L35.0001542,194.920772 L33.9552179,195.827266 L32.9329276,196.723818 L31.9328262,197.611015 L30.9544562,198.489443 L29.9973606,199.359691 L29.061082,200.222345 L28.1451631,201.077993 L27.2491467,201.927222 L26.3725756,202.770619 L25.5149924,203.608772 L24.67594,204.442266 C23.8460005,205.273628 23.0431711,206.098885 22.2653943,206.920678 L21.4958921,207.741415 C20.4808203,208.834453 19.509067,209.922901 18.5757546,211.013021 L17.8829018,211.831023 C17.5400031,212.240279 17.2023386,212.64999 16.8696512,213.060488 L16.2108363,213.882627 C14.4712863,216.078316 12.8684291,218.30262 11.3632451,220.605649 L10.8033033,221.473072 L10.2520611,222.348464 L9.70906122,223.23241 C9.52938418,223.52855 9.35100466,223.826213 9.17384643,224.125498 C-1.68529316,242.47039 -3.33722698,264.552385 6.5515716,280.261761 C14.6934315,293.185133 30.2662112,301.305608 47.6087498,302.837167 C56.81507,303.649686 65.9041112,302.911536 76.7744408,300.634389 L78.2025678,300.328643 C79.161595,300.118995 80.1347155,299.897714 81.1231776,299.664808 L82.6175331,299.30673 C83.6216489,299.062199 84.6417305,298.806047 85.6790262,298.538282 L87.2480364,298.127923 C87.5117418,298.058079 87.7765622,297.987509 88.042517,297.916213 L89.6520144,297.479734 L91.2896736,297.025848 L92.9564309,296.554562 L94.6532226,296.06588 C111.857102,291.08468 128.791108,285.190217 145.384293,278.407393 L148.851138,276.984409 L149.840185,276.586681 C150.00147,276.522567 150.161014,276.459534 150.318877,276.397574 L151.246342,276.038604 C151.397711,275.980896 151.547516,275.924242 151.695813,275.868634 L152.567978,275.547457 C156.273032,274.209429 159.038009,273.565971 161.885461,273.460046 C163.492806,273.400253 165.016123,273.544215 166.472302,273.90826 C168.591587,274.450066 170.381602,275.383309 172.750414,277.164999 L173.307751,277.591427 L173.888117,278.049226 L174.493991,278.539644 L175.127855,279.063928 L175.792187,279.623327 L177.721571,281.268848 L178.294969,281.749896 C183.512794,286.062246 188.075375,288.14889 192.80907,287.376817 C195.654771,286.923221 198.309823,285.323959 200.038452,283.019452 L200.222823,282.766219 C202.149623,280.04008 202.803757,276.520989 202.34234,272.849776 L202.298087,272.524 L202.603662,272.723297 C203.886666,273.542495 205.305486,274.250127 206.789857,274.820169 C209.881918,276.006193 213.280414,275.99012 216.088929,274.643913 L216.329471,274.5251 C219.749173,272.775809 221.957031,269.048531 222.340986,265.019668 L222.350462,264.901875 L222.551963,264.986937 C225.097011,266.015922 228.348509,265.855577 230.552501,264.38599 C233.276825,262.569774 234.92214,259.279415 235.145213,255.702915 C235.324869,252.835972 234.688651,249.962339 233.325591,246.416595 C229.858343,237.452957 225.363236,230.450696 219.339009,225.581428 C212.677794,220.210315 204.475529,216.404997 195.482866,214.327398 C184.438993,211.773657 172.578091,211.677972 157.96498,213.44885 C155.247005,213.779122 152.628639,214.134588 150.008917,214.533822 L148.698476,214.737172 L146.881405,215.031243 L145.46155,215.270783 L144.030264,215.520785 L142.584078,215.781887 L141.119522,216.054726 L139.633125,216.339942 L137.611292,216.740586 L136.580932,216.950057 L134.476184,217.388242 L132.305877,217.853348 L129.488274,218.47489 L127.14039,219.006096 L125.319363,219.425311 L122.159532,220.165532 L120.183107,220.635622 L115.314094,221.812347 L110.049097,223.107423 L107.538212,223.7305 L108.706843,221.634716 L109.949203,219.433298 L110.804989,217.931402 L112.133233,215.620925 L113.050333,214.038563 L114.476634,211.595745 L115.96761,209.062347 C116.13703,208.775516 116.307728,208.486852 116.479733,208.196303 C116.897897,207.489943 116.58496,206.577097 115.821374,206.275859 L105.543513,202.227778 L97.8384153,199.219761 L92.6822926,197.227615 L88.4434077,195.606983 L84.9907929,194.301334 L81.149267,192.867081 L77.9966139,191.707196 L74.9549963,190.605149 L72.0071036,189.554981 L69.609633,188.71517 L66.7886099,187.744632 L64.4726211,186.962833 L62.1776413,186.201885 L61.1578697,185.868204 C60.1388954,185.536153 59.1218684,185.208838 58.1027852,184.88488 L56.5721178,184.40129 L55.5484767,184.081185 L54.5212406,183.762552 C53.3203556,183.391554 52.1103145,183.022937 50.88476,182.654512 C50.4660482,182.52864 50.0122324,182.615946 49.6701109,182.888189 Z M50.7839616,185.41075 L51.1579124,185.523691 C52.8875397,186.047632 54.5896552,186.573342 56.2827286,187.107182 L57.2976354,187.428513 C58.4807722,187.804656 59.6612884,188.185406 60.8455191,188.572946 L63.2307108,189.361029 L65.5291885,190.134578 L66.9217823,190.609851 L68.7987866,191.258083 L71.6679457,192.265142 L74.1190303,193.139941 L77.1473481,194.237526 L80.822077,195.591461 L84.6753801,197.033416 L88.1410222,198.346556 L89.9359277,199.031816 L93.0268378,200.218974 L97.5795572,201.981374 L104.58928,204.719316 L113.387587,208.1835 L111.746845,210.977701 L110.342324,213.389248 L108.995961,215.722324 L107.70343,217.985207 L106.869515,219.458886 L106.056322,220.907498 L105.26257,222.333497 L104.486978,223.739334 L103.728265,225.127462 C103.173184,226.147924 104.097141,227.341008 105.224029,227.058908 L111.237721,225.56164 L116.093815,224.36834 L119.351165,223.578924 L121.227254,223.129309 L124.816214,222.281761 L127.654024,221.625665 L130.366516,221.012664 L132.966593,220.440379 L135.467161,219.90643 L137.881122,219.408439 L139.758606,219.034337 L141.595527,218.680507 L143.398493,218.345732 L145.17411,218.028793 L146.49185,217.802062 L148.235504,217.513406 L149.969978,217.239237 L151.268784,217.042385 L153.003091,216.790638 L154.746387,216.550028 L156.948212,216.263072 L158.286373,216.097348 C172.617693,214.360619 184.18807,214.45396 194.882056,216.926794 C203.497005,218.917129 211.33115,222.551664 217.663141,227.657313 C223.272832,232.191521 227.524411,238.814426 230.83633,247.376496 C232.073,250.593468 232.63357,253.125418 232.482484,255.536446 C232.308137,258.331715 231.049932,260.847919 229.072511,262.1662 C227.139425,263.455151 223.676349,263.162663 222.118176,261.605546 L221.981867,261.460515 C221.115139,260.477047 219.498216,261.20277 219.656936,262.504014 C220.150148,266.547542 218.205142,270.680027 214.93846,272.236788 C212.821933,273.2513 210.181863,273.263786 207.745817,272.32939 C205.01863,271.282071 202.561728,269.717947 200.988318,267.9205 C200.015797,266.809503 198.226256,267.867543 198.730979,269.255118 C200.37895,273.785687 200.175399,278.3896 197.904075,281.418742 C196.591465,283.168637 194.551341,284.397499 192.384353,284.742917 C188.695095,285.344632 184.85517,283.641718 180.322934,279.962419 L179.289474,279.100599 L177.501572,277.574822 L176.789075,276.975206 C176.67298,276.87836 176.558173,276.78304 176.444596,276.68922 L175.777431,276.144076 C175.232985,275.704422 174.71638,275.300894 174.220334,274.93009 L173.634483,274.500615 C171.326828,272.843806 169.425791,271.909604 167.126236,271.321726 C165.410384,270.892744 163.636753,270.725125 161.786283,270.793963 C158.390812,270.920274 155.203517,271.706685 150.832949,273.342418 L149.87778,273.706001 C149.715398,273.768788 149.551379,273.832675 149.385662,273.897671 L148.370454,274.30103 L146.439906,275.088332 C129.272315,282.194715 111.737381,288.341836 93.9100889,293.50354 L93.0705333,293.746401 L91.4141442,294.219224 L89.7872884,294.674851 L88.1890504,295.113281 C87.9250114,295.18492 87.6621266,295.255842 87.400377,295.326048 L85.8433494,295.738685 L84.3126509,296.134129 L82.8073661,296.512378 C82.5585523,296.573987 82.3107592,296.63488 82.0639678,296.695056 L80.5950872,297.047517 L79.1493316,297.382786 C78.6711656,297.491678 78.1967011,297.597704 77.7257857,297.700865 L76.323534,298.001754 C76.091549,298.050469 75.8604131,298.098469 75.6301073,298.145752 L74.2580803,298.420857 C64.4944167,300.330854 56.1949694,300.91666 47.8433737,300.179576 C31.2750794,298.716393 16.4665101,290.994417 8.80913979,278.840064 C-0.491735642,264.064664 1.08157223,243.033691 11.4696978,225.484506 L11.9906405,224.615332 C12.0781073,224.471203 12.1659018,224.327433 12.2540335,224.18401 L12.7869452,223.327538 C12.8764632,223.185455 12.9663372,223.043694 13.0565766,222.902245 L13.6024728,222.057184 C13.6942114,221.91693 13.7863341,221.776964 13.8788504,221.637273 L14.4387468,220.802331 C14.7211317,220.386415 15.0072282,219.97276 15.2972903,219.561043 L15.8827768,218.740096 L16.4792893,217.923742 C16.6800147,217.652326 16.8826529,217.38158 17.0872792,217.111408 L17.7071977,216.302519 C17.9158755,216.033399 18.1266166,215.764758 18.3394962,215.4965 L18.9846261,214.692778 C19.4190901,214.157602 19.8624093,213.623574 20.3151854,213.089929 L21.0015175,212.289652 C21.1171133,212.156289 21.2333191,212.022926 21.3501441,211.88955 L22.0586006,211.089059 C22.4166197,210.688646 22.7803814,210.287911 23.1501398,209.886529 L23.897727,209.08281 L24.6617565,208.276794 C24.79049,208.142235 24.9199274,208.007556 25.0500781,207.872746 L25.839617,207.062209 C25.9726586,206.926825 26.1064322,206.791285 26.2409473,206.655578 L27.0570113,205.839229 L27.891323,205.018288 L28.7443335,204.19218 L29.6164944,203.360331 L30.5082568,202.522167 L31.4200723,201.677114 L32.352392,200.824598 L33.3056675,199.964045 C33.4663181,199.819917 33.6278607,199.675431 33.7903046,199.530575 L34.7758599,198.656889 L35.7834992,197.773731 L36.8136739,196.880526 L37.8668353,195.9767 L38.9434349,195.061679 L40.0439239,194.13489 L41.1687537,193.195757 L42.9026248,191.762659 L44.0902813,190.790156 L45.9205081,189.304312 L47.8105795,187.784238 L50.7839616,185.41075 Z" id="Path" fill="#000000" fill-rule="nonzero"></path>
                    <path d="M176.655078,248.271099 C177.044384,247.645633 177.86702,247.454186 178.492487,247.843492 C189.789625,254.875105 197.315941,261.368985 202.398143,269.535428 C202.787405,270.160923 202.595902,270.983545 201.970408,271.372807 C201.344913,271.762069 200.522291,271.570566 200.133029,270.945072 C195.310737,263.196271 188.063695,256.943355 177.082685,250.108508 C176.457218,249.719202 176.265772,248.896566 176.655078,248.271099 Z" id="Path" fill="#000000" fill-rule="nonzero"></path>
                    <path d="M189.266447,235.03023 C189.527896,234.341454 190.298205,233.995037 190.986981,234.256486 C204.356762,239.331454 215.739081,249.448939 222.351096,262.126372 C222.691788,262.779593 222.438434,263.585318 221.785214,263.92601 C221.131993,264.266702 220.326268,264.013348 219.985576,263.360128 C213.675896,251.26237 202.798357,241.593573 190.040191,236.750764 C189.351415,236.489315 189.004998,235.719006 189.266447,235.03023 Z" id="Path" fill="#000000" fill-rule="nonzero"></path>
                    <path d="M130.944823,179.144039 C131.349764,178.52858 132.176962,178.357921 132.792422,178.762862 C133.407881,179.167803 133.57854,179.995001 133.173599,180.610461 C126.421999,190.872042 120.189418,201.217692 114.474222,211.678212 C114.120987,212.324736 113.310523,212.562495 112.663999,212.209261 C112.017475,211.856027 111.779716,211.045562 112.13295,210.399038 C117.883606,199.873616 124.15376,189.465599 130.944823,179.144039 Z" id="Path" fill="#000000" fill-rule="nonzero"></path>
                    <path d="M171.757961,109.470375 C172.238336,101.626875 175.333211,93.75625 181.149336,88.473875 C186.965461,83.191325 195.795961,80.2298875 203.586961,80.5233625 C215.458961,81.0035625 224.263211,89.64725 226.877711,100.933 C228.878836,109.52375 228.691586,118.755 225.303586,126.891625 C221.888461,135.029125 215.031961,141.859375 206.521711,144.207 C203.747086,144.9805 200.838586,145.27386 197.957211,145.27386 C191.126961,145.30075 186.352086,142.979375 181.816086,138.044375 C177.334336,133.161875 174.212336,127.078875 172.691586,120.649375 C171.864711,116.993625 171.518211,113.20575 171.757961,109.470375 Z" id="Path" fill="#FFFFFF" fill-rule="nonzero"></path>
                    <path d="M180.252465,87.4864132 C174.418754,92.7847594 170.952629,100.798141 170.426492,109.388829 C170.183455,113.17533 170.517932,117.085946 171.390489,120.943663 C172.987179,127.694505 176.254247,133.957864 180.833363,138.946437 C185.730288,144.27411 190.901879,146.63561 197.962463,146.608056 C201.169883,146.608056 204.140641,146.255616 206.879929,145.491966 C215.51827,143.109012 222.836776,136.216613 226.533618,127.407842 C229.880747,119.369387 230.351439,109.965607 228.176893,100.630369 C225.36252,88.481845 215.943685,79.857674 204.007143,79.207893 L203.637174,79.1903441 C195.348454,78.8781208 186.224604,82.062162 180.252465,87.4864132 Z M203.536748,81.8563809 C214.389956,82.2953778 222.995392,90.0852688 225.578164,101.234058 C227.632434,110.052963 227.190071,118.890762 224.072113,126.378854 C220.681328,134.458343 213.985586,140.764237 206.166976,142.921068 C203.674762,143.615833 200.941396,143.94012 197.957211,143.94012 C191.658246,143.964684 187.197263,141.927669 182.798208,137.141659 C178.532528,132.494549 175.479798,126.642101 173.989731,120.342329 C173.175274,116.741188 172.862622,113.085743 173.089186,109.555818 C173.575095,101.622038 176.757428,94.2647609 182.046191,89.4613516 C187.491345,84.5157398 195.932513,81.569941 203.536748,81.8563809 Z" id="Path" fill="#000000" fill-rule="nonzero"></path>
                    <path d="M203.586961,80.5233625 C195.796836,80.2032 186.965461,83.191325 181.149336,88.473875 C175.333211,93.75625 172.238336,101.626875 171.757961,109.470375 C171.518211,113.20575 171.864711,116.993625 172.718711,120.649375 C172.959336,121.662625 173.225336,122.649625 173.545586,123.6375 C175.653461,122.67675 177.547836,120.995875 179.015211,119.182 C183.069961,114.11225 184.884711,107.3625 183.951086,100.960125 C187.072211,103.707625 192.034336,103.280625 195.235961,100.61275 C198.437586,97.944875 199.291586,92.876 197.157461,89.30075 C197.877586,90.36825 198.678211,90.447875 199.825336,91.035 C201.425711,91.835625 203.186211,92.369375 204.947586,92.316 C206.735211,92.262625 208.522836,91.541625 209.669961,90.181 C210.817086,88.820375 211.163586,86.739625 210.283336,85.1921875 C211.883711,86.8196875 213.911961,87.3800375 216.152836,87.807125 C217.299961,88.020625 218.553836,88.046875 219.621336,87.647 C215.512336,83.4047375 209.990211,80.7634625 203.586961,80.5233625 Z" id="Path" stroke="#000000" stroke-width="3.04906" fill="#000000" fill-rule="nonzero" stroke-linecap="round" stroke-linejoin="round"></path>
                    <path d="M220.207586,100.39925 C220.797336,100.39925 221.275086,99.9215 221.275086,99.332625 C221.275086,98.742875 220.797336,98.265125 220.207586,98.265125 C219.617836,98.265125 219.140086,98.742875 219.140086,99.332625 C219.140086,99.9215 219.617836,100.39925 220.207586,100.39925 Z" id="Path" fill="#000000" fill-rule="nonzero"></path>
                    <path d="M210.976305,99.8922266 C211.669021,99.6414033 212.433911,99.9996281 212.684734,100.692344 C213.783018,103.72555 215.90744,106.478962 218.715509,108.590928 C221.32449,110.554533 224.474014,111.950837 228.011728,112.787877 C228.728662,112.957507 229.172339,113.676209 229.002709,114.393142 C228.833079,115.110076 228.114377,115.553753 227.397444,115.384123 C223.517972,114.466221 220.031566,112.920565 217.111522,110.722842 C213.903783,108.310283 211.457752,105.140041 210.176188,101.600656 C209.925364,100.90794 210.283589,100.14305 210.976305,99.8922266 Z" id="Path" fill="#000000" fill-rule="nonzero"></path>
                    <path d="M193.794836,104.50825 C193.501711,102.613875 192.807836,100.772875 191.634461,99.27925 C190.460211,97.78475 188.725961,96.66475 186.831586,96.397875 C184.938086,96.131 182.883586,96.770625 181.655961,98.238 C180.402086,99.705375 180.108961,101.759875 180.215711,103.681375 C180.295336,105.014875 180.562211,106.34925 181.015461,107.603125 C181.335711,108.509625 181.762711,109.417 182.349836,110.1905 C183.336836,111.4715 184.777961,112.378875 186.352086,112.725375 C187.925336,113.045625 189.633336,112.77875 191.020211,112.00525" id="Path" fill="#FFFFFF" fill-rule="nonzero"></path>
                    <path d="M193.794836,104.50825 C193.501711,102.613875 192.807836,100.772875 191.634461,99.27925 C190.460211,97.78475 188.725961,96.66475 186.831586,96.397875 C184.938086,96.131 182.883586,96.770625 181.655961,98.238 C180.402086,99.705375 180.108961,101.759875 180.215711,103.681375 C180.295336,105.014875 180.562211,106.34925 181.015461,107.603125 C181.335711,108.509625 181.762711,109.417 182.349836,110.1905 C183.336836,111.4715 184.777961,112.378875 186.352086,112.725375 C187.925336,113.045625 189.633336,112.77875 191.020211,112.00525" id="Path" stroke="#000000" stroke-width="3.04906" stroke-linecap="round" stroke-linejoin="round"></path>
                    <path d="M184.147038,99.7326863 C184.750997,99.3107835 185.582622,99.4583689 186.004525,100.062327 L189.348928,104.853414 L190.10573,105.922016 C190.533051,106.522153 190.392957,107.355073 189.79282,107.782394 C189.192683,108.209715 188.359763,108.069621 187.932442,107.469484 L186.968757,106.107036 L183.817397,101.590173 C183.395494,100.986214 183.54308,100.154589 184.147038,99.7326863 Z" id="Path" fill="#000000" fill-rule="nonzero"></path>
                    <path d="M105.592386,224.097347 C106.307473,223.920091 107.030859,224.356089 107.208114,225.071175 C107.38537,225.786262 106.949372,226.509648 106.234286,226.686903 C93.7897256,229.771661 81.6898586,234.151561 70.2675742,239.717182 C69.6052843,240.039889 68.8067863,239.764603 68.484079,239.102313 C68.1613717,238.440023 68.4366578,237.641525 69.0989477,237.318818 C80.6903282,231.670803 92.9667889,227.22698 105.592386,224.097347 Z" id="Path" fill="#000000" fill-rule="nonzero"></path>
                </g>
            </g>
        </g>
    </g>
</svg>