<?xml version="1.0" encoding="UTF-8"?>
<svg width="201px" height="200px" viewBox="0 0 201 200" version="1.1" xmlns="http://www.w3.org/2000/svg" xmlns:xlink="http://www.w3.org/1999/xlink">
    <title>illustration_download_app</title>
    <g id="Desktop" stroke="none" stroke-width="1" fill="none" fill-rule="evenodd">
        <g id="00.00_Web-user" transform="translate(-140.000000, -2044.000000)" fill-rule="nonzero">
            <g id="Hazte-un-Woowbe" transform="translate(0.000000, 1646.000000)">
                <g id="Group-9" transform="translate(88.000000, 143.000000)">
                    <g id="Group-22" transform="translate(0.000000, 248.000000)">
                        <g id="Group-21" transform="translate(0.000000, 7.000000)">
                            <g id="illustration_download_app" transform="translate(52.000000, 0.000000)">
                                <g id="notification-man-phone-bell" transform="translate(0.000000, 14.000000)">
                                    <path d="M90.9227116,36.3844237 C90.0180517,34.4157697 87.9559592,33.1185189 85.7951966,32.6824864 C85.1466353,32.5512428 84.4648143,32.4883327 83.8284481,32.6694705 C82.6089311,33.016561 81.790746,34.2281239 81.6311001,35.4613799 C81.4714542,36.6946359 81.8628083,37.9387385 82.4071564,39.0646134 C83.3173596,40.955172 84.6854361,42.6580849 86.4515185,43.837108 C88.217601,45.0161311 90.3949933,45.6354708 92.5191704,45.4120313 C92.6156231,45.4022693 92.6865768,45.2341474 92.596776,45.2666871" id="Path" fill="#FFFFFF"></path>
                                    <path d="M91.1515991,46.0714286 C89.3310326,46.0714286 87.4860076,45.4709906 85.8696168,44.3402388 C84.1755967,43.1536069 82.7718889,41.4114602 81.8084349,39.3000661 C81.1342298,37.8230764 80.8758199,36.5334496 81.0204444,35.3555832 C81.2139859,33.7821727 82.213596,32.464058 83.5077721,32.0772796 C84.3021431,31.8395149 85.1114019,31.9677106 85.6505533,32.0772796 C88.0847102,32.5955408 90.0647889,34.109784 90.9452966,36.1313315 C91.0233705,36.3098337 91.003089,36.5176926 90.892092,36.6766098 C90.7810951,36.835527 90.5962456,36.9213591 90.4071748,36.9017741 C90.2181039,36.882189 90.0535359,36.7601622 89.9754621,36.58166 C89.2459594,34.9074461 87.505149,33.5948098 85.43468,33.1532469 C84.7540944,33.0086158 84.2362113,33.000946 83.8044648,33.1302374 C82.9250206,33.3932029 82.2146594,34.3650797 82.0753521,35.4936401 C81.957313,36.4567513 82.1816936,37.5480583 82.7708255,38.8311109 C83.6523965,40.7628119 84.9306213,42.351562 86.467256,43.4330077 C88.0389834,44.5286975 89.9222913,45.0765423 91.6779895,44.9571121 C91.7339486,44.8946951 91.8035921,44.8469822 91.8811018,44.8179595 C92.0842192,44.7366925 92.3146636,44.784608 92.4712971,44.9406768 C92.6280841,45.1013994 92.6795959,45.3415216 92.6031605,45.5553587 C92.518885,45.8064827 92.3046524,45.9873918 92.0491213,46.0232182 C91.7509594,46.0552927 91.4513816,46.0714286 91.1515991,46.0714286 Z" id="Path" fill="#000000"></path>
                                    <path d="M90.86668,41.7714286 C90.7214918,41.7714286 90.582329,41.7154378 90.4801165,41.6159781 C88.8892173,40.0667338 87.2046717,38.5700062 85.4711251,37.1709598 C85.2404924,36.9847528 85.2100222,36.6534609 85.4030681,36.4309986 C85.596114,36.2085364 85.9395733,36.1791457 86.170206,36.3653527 C87.9287976,37.7864561 89.6383882,39.3062911 91.2532434,40.8765422 C91.4080929,41.0272206 91.4537382,41.2529711 91.3689368,41.448733 C91.2841354,41.6444949 91.0855468,41.77181 90.8655911,41.7714286 L90.86668,41.7714286 Z" id="Path" fill="#000000"></path>
                                    <path d="M100.945947,84.7714286 C99.3613709,75.0617708 96.1648225,65.7009565 93.5611204,56.2121965 C90.9574182,46.7234365 88.9257416,36.9044235 89.7607673,27.1029073 C90.2089635,21.8472912 91.5360187,16.5457459 94.5309336,12.199966 C96.6732896,9.08990104 99.6068378,6.57144832 102.848315,4.62711095 C106.647573,2.34814635 110.957489,0.817172046 115.383563,0.632361577 C119.809638,0.447551108 124.358445,1.67779831 127.835527,4.41933587 C130.273759,6.34180217 132.119143,8.93133585 133.525099,11.695838 C139.420687,23.2875006 140.017917,36.1575267 138.650315,48.8449295 C137.516127,59.3605358 135.501984,69.8783293 136.229618,80.4300229" id="Path" fill="#FFFFFF"></path>
                                    <path d="M100.769671,85.3857143 C100.503685,85.3857143 100.277111,85.190625 100.234554,84.9256816 C99.0926801,77.8468572 97.0618383,70.8217018 95.0982933,64.0276515 C94.3743107,61.5249262 93.6264487,58.9356734 92.927431,56.3781838 C90.5677036,47.68491 88.2731021,37.4001876 89.1468742,27.0322236 C89.6646248,20.8822006 91.286259,15.7716027 93.9651032,11.8417215 C96.0035429,8.84940402 98.8321766,6.24372197 102.370682,4.09696416 C106.480125,1.6051917 110.86201,0.194465136 115.044177,0.0192196008 C119.820074,-0.182312765 124.323528,1.2065081 127.737209,3.92938561 C129.980795,5.71798536 131.926973,8.23166351 133.520386,11.3992266 C136.308859,16.9435572 138.040122,22.9544791 138.811863,29.7770068 C139.463122,35.5360132 139.411021,41.7955647 138.652305,48.912724 C138.378776,51.4745947 138.048805,54.0780862 137.730774,56.5950502 C136.739775,64.4164775 135.715128,72.5029637 136.256758,80.4525393 C136.269943,80.6481931 136.178685,80.8360825 136.017361,80.9454313 C135.856036,81.0547802 135.649154,81.0689759 135.474645,80.982671 C135.300136,80.8963661 135.184512,80.7226724 135.171327,80.5270186 C134.622099,72.4712004 135.654344,64.32995 136.651855,56.455949 C136.969887,53.9444615 137.303114,51.3475417 137.571215,48.7955286 C138.321248,41.7594203 138.373349,35.5798246 137.730774,29.9018693 C136.970972,23.2107757 135.27987,17.3214304 132.550011,11.8953905 C131.030407,8.86911915 129.185174,6.47920816 127.062071,4.78918402 C123.898039,2.27002945 119.534606,0.925019963 115.086509,1.11340891 C111.085609,1.28098746 106.881734,2.63804507 102.929679,5.03562306 C99.5246817,7.10132981 96.8089329,9.59967397 94.858413,12.4616526 C92.2870266,16.2338128 90.7337746,21.1669746 90.2268782,27.1242275 C89.3683021,37.3213271 91.6379387,47.488854 93.9737866,56.0890287 C94.6652063,58.637756 95.4119829,61.2226276 96.1348801,63.7209718 C98.108194,70.5467854 100.150975,77.6047993 101.300447,84.750436 C101.323628,84.8937926 101.28942,85.0405695 101.205349,85.158474 C101.121279,85.2763785 100.994233,85.3557513 100.852164,85.3791294 C100.824905,85.3837079 100.797305,85.3857143 100.769671,85.3857143 L100.769671,85.3857143 Z" id="Path" fill="#000000"></path>
                                    <path d="M137.411642,21.4510392 C136.514416,17.1699809 134.978486,13.1047373 132.967874,9.69464539 C131.576413,7.3349983 129.952499,5.40037398 128.139581,3.95023155 C124.723387,1.2129088 120.2101,-0.18327996 115.437205,0.0193215635 C111.108577,0.202103372 106.537721,1.70730056 101.850637,4.49197041 C98.0629524,6.74811454 94.2752676,9.77172206 90.5951197,13.4967272 C88.6887856,15.4236439 86.652104,17.7909987 86.0025383,20.7562481 C85.7852923,21.7472338 85.8808805,22.500383 86.293648,23.0542339 C86.7585545,23.6774538 87.6297112,23.9714462 88.5139026,23.8007764 C89.232987,23.6620384 89.8412759,23.2766551 90.3778736,22.9353156 C94.4403746,20.3576516 98.5387213,17.7249329 102.580584,15.0966186 C102.368585,16.170218 102.259454,17.2620759 102.254715,18.3569616 C102.254715,19.1871874 102.313371,20.1440392 102.830417,20.9489398 C103.559277,22.0819668 105.133225,22.6347166 106.657206,22.2911749 C107.999786,21.9883737 109.105569,21.1471369 110.036468,20.3807746 C112.6112,18.262715 114.927802,15.8412222 116.937289,13.1674998 C117.405748,14.4456966 118.084067,15.6343873 118.943556,16.6832969 C120.138409,18.1235294 121.683029,19.1233239 123.294994,19.4998985 C125.131809,19.9293256 126.879554,19.5450434 128.211272,19.0286297 C128.318221,20.5378767 129.023571,21.9388851 130.166487,22.9121926 C130.632642,23.3200805 131.175967,23.6273075 131.763245,23.8150907 C132.078391,23.9101202 132.405542,23.9579726 132.734335,23.9571429 C134.255057,23.9571429 135.817056,23.0035835 137.187879,22.0181033 C137.36854,21.89219 137.456801,21.6685166 137.411642,21.4510392 Z" id="Path" fill="#000000"></path>
                                    <path d="M135.582822,27.0162762 C135.706369,24.811957 136.401453,22.6098202 137.754019,20.882376 C139.106586,19.1549318 141.151014,17.9436475 143.321136,17.826884 C143.882037,17.7840382 144.445826,17.8507143 144.982032,18.0233085 C145.835041,18.3201277 146.534422,18.9672373 147.064061,19.7081941 C148.744295,22.0641967 148.78297,25.3106569 147.873023,28.0671472 C146.476409,32.2651749 142.950497,35.665501 138.748838,36.8571429" id="Path" fill="#FFFFFF"></path>
                                    <path d="M138.719146,37.4714286 C138.447267,37.4719446 138.216896,37.268861 138.180137,36.9962019 C138.143378,36.7235428 138.31157,36.4654115 138.573662,36.3922411 C142.71792,35.1921228 146.022355,32.0197987 147.425379,27.8944148 C148.402509,24.9537471 148.126741,21.9932991 146.68276,19.9757109 C146.308193,19.4526325 145.685001,18.7669163 144.837069,18.4757067 C144.360849,18.3242565 143.86032,18.2668052 143.362687,18.3064754 C141.418198,18.4097724 139.463937,19.4823029 138.132868,21.1757143 C136.92014,22.7141802 136.178607,24.8020983 136.055923,27.0416651 C136.038833,27.3451191 135.781938,27.5770953 135.48213,27.5597984 C135.182322,27.5425015 134.953133,27.2824816 134.970222,26.9790275 C135.109192,24.5152843 135.929981,22.2108821 137.281678,20.4954926 C138.801659,18.5603223 141.053402,17.3339452 143.30406,17.2141646 C143.939799,17.1655301 144.578818,17.2424134 145.185579,17.4405389 C146.066082,17.7449353 146.8847,18.3998823 147.554577,19.3350498 C149.203756,21.6427486 149.538152,24.9724284 148.447023,28.2493608 C146.973727,32.6735492 143.299717,36.2010318 138.85703,37.4548815 C138.811996,37.4665503 138.765627,37.4720936 138.719146,37.4714286 Z" id="Path" fill="#000000"></path>
                                    <path d="M138.600414,30.7142857 C138.401878,30.7143944 138.217945,30.6112404 138.116275,30.442769 C138.014605,30.2742976 138.010214,30.0653904 138.104718,29.8928945 C139.348528,27.6138469 140.847247,25.4798695 142.572749,23.5310091 C142.777912,23.3014749 143.132234,23.2788203 143.365633,23.4803136 C143.599032,23.6818069 143.623804,24.0317323 143.421067,24.2633605 C141.750785,26.149804 140.300056,28.2154649 139.096111,30.4215677 C138.997926,30.6017616 138.807556,30.7141782 138.600414,30.7142857 L138.600414,30.7142857 Z" id="Path" fill="#000000"></path>
                                    <path d="M99.898458,50.9850343 C99.3009735,50.9995958 98.7215179,50.7798109 98.2840804,50.3727081 C97.8068053,49.9164866 97.5384755,49.2096181 97.5461735,48.4334919 C97.5527717,47.8002785 97.7232271,47.2187335 97.9112779,46.6283939 C98.908717,43.5062999 100.264662,40.4721522 101.575519,37.546838 C102.048395,36.4881843 102.537767,35.3943521 103.005145,34.3148111 C103.082125,34.1345212 103.166803,33.93994 103.25588,33.7354648 C103.840926,32.3898862 104.642617,30.547411 104.905448,29.3062687 C104.946505,29.1142128 105.086939,28.9586418 105.273851,28.8981578 C105.460763,28.8376737 105.665756,28.8814657 105.81161,29.0130376 C105.957465,29.1446096 106.022023,29.3439725 105.980966,29.5360285 C105.692842,30.884905 104.865858,32.7856446 104.262116,34.1729977 C104.174139,34.3763735 104.089461,34.5698554 104.012482,34.749046 C103.545104,35.8362823 103.054632,36.9334125 102.582856,37.9953642 C101.284095,40.8975924 99.9435462,43.8998596 98.9626029,46.9625899 C98.7998454,47.4704798 98.6546834,47.9651778 98.6491849,48.4455845 C98.6436863,48.9259913 98.789948,49.3316436 99.0483804,49.5789926 C99.5069604,50.0187242 100.302052,49.9428705 100.850809,49.6427537 C101.49634,49.2887698 101.980213,48.667649 102.500377,47.9530852 C104.113655,45.7368382 105.647754,43.4205522 107.058684,41.0679884 C107.551356,40.2456904 108.332151,38.7593978 109.087654,37.3192769 C109.680399,36.1891668 110.241252,35.1206192 110.627251,34.4522272 C110.779089,34.1884238 111.116108,34.0976155 111.380004,34.2494011 C111.643899,34.4011867 111.734739,34.7380882 111.582901,35.0018917 C111.210098,35.654893 110.654744,36.7146461 110.065298,37.8359615 C109.303197,39.288175 108.515803,40.7898582 108.006636,41.6385401 C106.577011,44.0196865 105.026416,46.3656543 103.394443,48.6049872 C102.817094,49.3987027 102.228748,50.1440477 101.384169,50.6123618 C100.927058,50.8566574 100.416794,50.9846509 99.898458,50.9850343 L99.898458,50.9850343 Z" id="Path" fill="#000000"></path>
                                    <path d="M107.296592,46.6857143 C107.029625,46.6862592 106.801266,46.4954149 106.756324,46.2341988 C106.711381,45.9729827 106.862987,45.7177261 107.115006,45.6302928 C110.287301,44.5194955 113.192686,42.1838895 116.006184,38.4877467 C118.276016,35.5071616 119.711206,32.6981366 120.393797,29.9010556 C120.439717,29.7125229 120.583478,29.562629 120.770926,29.5078373 C120.958374,29.4530457 121.161031,29.5016805 121.302559,29.6354216 C121.444086,29.7691626 121.502983,29.9676914 121.457063,30.1562241 C120.738374,33.100977 119.240831,36.0403009 116.879112,39.1424982 C113.932159,43.0134585 110.86269,45.4706768 107.479273,46.6542242 C107.420549,46.6746636 107.35882,46.685304 107.296592,46.6857143 L107.296592,46.6857143 Z" id="Path" fill="#000000"></path>
                                    <path d="M189.564106,122.766923 C184.213232,108.37131 175.399706,93.2014689 162.352115,84.4573859 C148.797874,75.3757355 130.178226,75.7122139 114.777165,78.5837142 C90.9330328,83.0287138 68.2449333,94.0933 50.6364053,110.766949 C33.7306495,126.774174 21.6538644,147.963603 17.1779141,170.7886 C35.2048366,172.224894 54.8105449,170.7886 71.3600116,169.43833 C114.165917,165.960298 157.341186,164.773368 200,169.566824 C197.657426,153.715315 195.14379,137.77887 189.564106,122.766923 Z" id="Path" stroke="#73DEE4" fill="#73DEE4" stroke-linecap="round" stroke-linejoin="round"></path>
                                    <path d="M20.3355184,79.8571429 C20.0979234,79.8566852 19.8864985,79.7105085 19.8080924,79.4924868 C17.7535259,73.717498 17.9612419,67.4089233 20.3915084,61.7734688 C20.4660966,61.5893002 20.6376584,61.4590103 20.8395363,61.4332213 C21.0414141,61.4074322 21.2417809,61.4902098 21.3627873,61.6493921 C21.4837937,61.8085743 21.5063624,62.0190654 21.4217247,62.1990823 C19.0992116,67.5844502 18.8998766,73.6129521 20.8618246,79.1321849 C20.9112304,79.2684447 20.9028757,79.4182085 20.8386013,79.5484758 C20.7743269,79.6787431 20.6594074,79.7788235 20.5191657,79.8266641 C20.460089,79.8465652 20.3980413,79.8568628 20.3355184,79.8571429 Z" id="Path" fill="#000000"></path>
                                    <path d="M11.5121273,77.4 C11.306686,77.400413 11.1172201,77.290541 11.0173759,77.1130906 C10.0572419,75.400572 9.65172651,73.2727621 9.87651082,71.1215083 C10.0730559,69.2404171 10.7293357,67.314671 11.8261475,65.3978558 C11.9799251,65.1293454 12.3248298,65.0348798 12.5965138,65.1868611 C12.8681979,65.3388423 12.96378,65.6797181 12.8100025,65.9482285 C11.79339,67.7344278 11.1811634,69.5094634 11.0026915,71.2364948 C10.8016281,73.162241 11.158572,75.057845 12.0080082,76.5716489 C12.10472,76.7444603 12.1018416,76.9549143 12.0004388,77.125079 C11.899036,77.2952436 11.7142038,77.399788 11.5143864,77.4 L11.5121273,77.4 Z" id="Path" fill="#000000"></path>
                                    <path d="M40.2506548,96.4653681 C37.9061985,87.0415336 35.762706,77.5702404 33.8201774,68.0514886 C33.2391694,65.2039675 32.6866101,62.189976 33.6615217,59.4541653 C34.8487036,56.1203753 38.018534,53.9595448 41.0833234,52.1940818 C47.3991503,48.5553057 54.0792541,45.5904048 61.0137549,43.348148 C63.4504867,42.5606989 66.1563861,41.8751035 68.5044897,42.9100678 C71.4587672,44.2122611 72.6853395,47.6851417 73.5967888,50.7955108 L84.5757594,88.2174138 C86.2761102,94.0121192 87.9764611,99.809015 89.3813842,105.682575 C90.0061592,108.295723 90.5707544,111.054533 89.8376559,113.641396 C88.786152,117.354126 85.3132346,119.846802 81.814057,121.467698 C78.3148794,123.088595 74.5071439,124.183795 71.4554847,126.542857" id="Path" stroke="#FFE69E" fill="#FFE69E" stroke-linecap="round" stroke-linejoin="round"></path>
                                    <path d="M69.3815796,52.2142857 C69.1691697,52.2142857 68.9752835,52.0919386 68.8818231,51.8989256 C67.793749,49.6763759 65.8843502,47.9769228 63.5670408,47.1685239 C63.2759723,47.0677549 63.1207436,46.7473006 63.2203278,46.4527691 C63.3199119,46.1582376 63.6365984,46.001162 63.9276668,46.1019309 C66.522119,47.0069752 68.6606375,48.9083814 69.8813361,51.3954757 C69.9663767,51.5701141 69.9562418,51.7768127 69.8545353,51.9420753 C69.7528287,52.1073379 69.5739788,52.2077198 69.3815796,52.207528 L69.3815796,52.2142857 Z" id="Path" fill="#000000"></path>
                                    <path d="M43.4986802,70.0285651 C43.3036203,70.0290301 43.1092565,70.0038206 42.9200284,69.9535058 C42.0768199,69.7294675 41.5276804,69.0226268 41.2167473,68.4692523 C40.5560796,67.2717964 40.3360486,65.8567448 40.5990971,64.4970539 L40.5990971,64.4970539 C40.890004,62.9209447 41.7585087,61.564393 42.979053,60.7724178 C43.5202606,60.4032494 44.148878,60.2047651 44.7919512,60.2 C45.9344986,60.223524 47.0338317,61.0804704 47.5323787,62.3283635 C47.9181466,63.3062905 47.9539829,64.5048952 47.6483199,65.7953556 C47.4068631,66.8653028 46.9036201,67.8484216 46.1895692,68.6451223 C45.5265966,69.3586842 44.5252865,70.0285651 43.4986802,70.0285651 Z M41.6341355,64.7121306 C41.4209657,65.8000957 41.5944377,66.9334167 42.1210884,67.893474 C42.2918381,68.1970458 42.6565257,68.7280165 43.175099,68.8669202 C43.9613908,69.076396 44.8825961,68.45581 45.4317356,67.858748 C46.0151723,67.2032791 46.4253185,66.3956293 46.6206595,65.5175482 C46.7966793,64.7838229 46.9284306,63.7095594 46.5542569,62.7607574 C46.2243516,61.9250946 45.4897062,61.3313932 44.7687629,61.3157106 C44.279702,61.3056288 43.8201534,61.5330277 43.5250305,61.7257006 C42.5274401,62.3937894 41.8392168,63.475909 41.6278114,64.7087701 L41.6341355,64.7121306 Z" id="Shape" fill="#000000"></path>
                                    <path d="M51.7555198,63.2714286 C51.4055137,63.266551 51.0717625,63.1273346 50.8273511,62.884265 C50.603344,62.6602569 50.4455817,62.381923 50.3705999,62.0784364 L50.3705999,62.0784364 C50.2116514,61.4405467 50.3528787,60.7671274 50.7561147,60.2401716 C51.0579125,59.8364603 51.5379604,59.5940355 52.0519891,59.5857534 C52.4623183,59.582588 52.8489696,59.7718189 53.0901553,60.093842 C53.2610683,60.3376062 53.3573194,60.6233372 53.3677678,60.9179619 C53.4041512,61.4410188 53.286432,61.9633267 53.0283472,62.4239367 C52.7475919,62.9208474 52.3212209,63.2277329 51.8581841,63.2663477 C51.8225659,63.2704124 51.7890429,63.2714286 51.7555198,63.2714286 Z M51.3825762,61.818295 C51.4120622,61.9473395 51.4755952,62.066743 51.5669528,62.1648115 C51.6186249,62.2195322 51.6906128,62.2520703 51.7670434,62.2552512 C51.8718028,62.2461056 52.0058949,62.1180673 52.1085592,61.9361716 C52.2696879,61.6469152 52.3423735,61.3190632 52.3180781,60.9911266 C52.3194408,60.8842486 52.2912228,60.7789727 52.2363657,60.6862734 C52.1935833,60.6333122 52.1286629,60.6016392 52.0593222,60.5998984 C51.8687228,60.605478 51.6925205,60.6996342 51.5858095,60.8529265 C51.3794953,61.1312031 51.3034477,61.4808584 51.3762906,61.8162626 L51.3825762,61.818295 Z" id="Shape" fill="#000000"></path>
                                    <path d="M42.2989848,66.9569955 C42.1001605,66.9572247 41.9217402,66.8227308 41.8501635,66.6186725 C41.5522308,65.7728649 41.8251756,64.8593928 42.0058574,64.2556976 C42.0578134,64.0740425 42.1945703,63.9371692 42.363861,63.8973894 C42.5331516,63.8576096 42.7088076,63.9210723 42.8236948,64.0635228 C42.938582,64.2059732 42.9749415,64.4053917 42.9188772,64.5855626 C42.7362732,65.1956013 42.5863458,65.781323 42.746845,66.2370018 C42.7944151,66.3684325 42.7921142,66.5153545 42.740457,66.6449046 C42.6887997,66.7744547 42.5920967,66.8758227 42.471978,66.926335 C42.4165091,66.9481322 42.35787,66.9585251 42.2989848,66.9569955 L42.2989848,66.9569955 Z" id="Path" fill="#000000"></path>
                                    <path d="M77.9275167,123.389789 C78.9834548,120.992925 78.7094111,117.790933 76.5964476,116.246045 C74.9891599,115.070493 72.7902859,115.136951 70.843706,115.549865 C68.9949989,115.94099 67.2550392,116.667676 65.5912028,117.562141 C68.6905059,115.349401 71.8246083,113.105065 74.2964384,110.20486 C75.6470821,108.620751 76.8161175,106.771897 77.0597119,104.702968 C77.2001523,103.410657 77.0022636,102.103982 76.4855252,100.911565 C75.7830165,99.263177 74.4834841,97.8359536 72.8207352,97.1757266 C70.5935868,96.291066 68.0847825,96.8488816 65.7608489,97.4284868 C65.2551731,97.5559563 64.7473224,97.4372026 64.3286446,97.6659942 C66.3807095,96.2202496 68.4469116,94.709136 69.8823783,92.6543702 C71.361344,90.5364143 72.0671151,87.6939519 71.0307517,85.3275938 C70.1379349,83.2913492 68.0945697,81.9305843 65.9348448,81.4054533 C63.7751199,80.8803222 61.5099099,81.0786082 59.3219107,81.4523011 C43.7710212,84.1128197 30.6984868,95.2756674 22.1661597,108.568455 C13.6338325,121.861243 9.0077148,137.233855 4.65781566,152.426702 C3.13535096,157.74665 1.63246081,163.089477 0.613496933,168.523821 C16.0860882,171.807524 34.187106,171.771571 51.1506251,170.842241 C51.1865118,170.450027 51.221311,170.058903 51.2593726,169.667778 C51.7269868,164.566817 52.1967759,159.444065 53.4147476,154.469484 C54.6327194,149.494902 56.6358479,144.635806 59.8819602,140.677712 C61.8611643,138.264506 64.2590462,136.233709 66.6580156,134.237776 C70.3934914,131.121853 75.8885015,128.015735 77.9275167,123.389789 Z" id="Path" fill="#FFFFFF"></path>
                                    <path d="M32.9391945,172 C20.0920211,172 9.52295489,171.055031 0.431226428,169.12581 C0.141766899,169.063989 -0.0454497637,168.781997 0.00959683948,168.490739 C1.00211507,163.200658 2.43696305,158.037155 4.07336522,152.319329 C8.77665963,135.882761 13.3470372,121.220465 21.6772177,108.248419 C26.1528103,101.277909 31.7211535,95.1541603 37.7819427,90.5362517 C44.5367319,85.3902081 51.7654459,82.1341024 59.2687094,80.8465003 C61.1894665,80.5191438 63.7039912,80.2168847 66.1150152,80.8072175 C68.6502402,81.4281036 70.6973771,83.0146913 71.5885735,85.0497573 C72.6105077,87.3805354 72.1496568,90.3965796 70.3901431,92.920498 C69.3845511,94.3608665 68.1218413,95.5164348 66.6859039,96.6196261 C68.9128053,96.1078588 71.0721589,95.8317882 73.0844325,96.630538 C74.8069037,97.314713 76.255915,98.7856347 77.0566843,100.667934 C77.6129261,101.949538 77.8251219,103.354481 77.6722418,104.743522 C77.4543453,106.621457 76.5032274,108.519034 74.7774877,110.543188 C73.2522127,112.332737 71.4861622,113.871312 69.6492953,115.294221 C70.0313403,115.184375 70.4119328,115.089442 70.7910726,115.009421 C73.4221719,114.451824 75.5074407,114.718074 76.988047,115.800533 C78.0884239,116.604738 78.8249139,117.887976 79.058063,119.414548 C79.2699844,120.840185 79.074312,122.296784 78.4937113,123.615623 L78.4937113,123.615623 C76.8899936,127.253644 73.2282441,129.987071 69.9957506,132.398597 C68.9433108,133.184252 67.9497031,133.92626 67.0541488,134.673724 C64.4971342,136.801541 62.225564,138.750404 60.3385809,141.05172 C57.4612586,144.558798 55.3182472,149.134151 53.9672893,154.647925 C52.7546957,159.600828 52.280771,164.780699 51.822099,169.789253 L51.7131508,170.965554 C51.6886548,171.235398 51.4701453,171.446351 51.2000047,171.460953 C44.6369643,171.818863 38.5696382,172 32.9391945,172 Z M1.18187962,168.167747 C13.9724,170.811696 29.7317591,171.519877 50.6770533,170.394862 L50.7413327,169.687772 C51.2043626,164.638844 51.6815558,159.417509 52.9137601,154.38604 C54.3028498,148.711861 56.519946,143.991381 59.5007691,140.356633 C61.4498527,137.981116 63.7617338,135.99188 66.3645066,133.832418 C67.2862085,133.068586 68.290711,132.315667 69.3551351,131.521282 C72.6301184,129.07702 76.0173184,126.548737 77.505551,123.1726 L77.505551,123.1726 C78.72795,120.397709 77.8225903,117.755942 76.3496104,116.678939 C75.1293904,115.787438 73.3361028,115.587751 71.0198638,116.074421 C69.3856406,116.421419 67.7100171,117.063038 65.8992977,118.03856 C65.6456915,118.177239 65.3280975,118.09347 65.175583,117.847674 C65.0230686,117.601877 65.0887002,117.279576 65.3251407,117.113232 C68.3615274,114.946132 71.5014149,112.703741 73.9483918,109.833916 C75.5303199,107.978896 76.3942792,106.271186 76.590386,104.613671 C76.720538,103.414369 76.5361589,102.201805 76.0554503,101.09568 C75.3668975,99.4807216 74.1379617,98.2236728 72.6780556,97.6464342 C70.6646926,96.8465933 68.3408272,97.3190778 65.9385191,97.9214137 C65.7013622,97.9755024 65.4593604,98.0054801 65.2161924,98.0108911 C64.9775959,98.0228942 64.7716837,98.0327149 64.6333195,98.109098 C64.3797132,98.2477768 64.0621192,98.1640086 63.9096048,97.9182121 C63.7570903,97.6724155 63.822722,97.3501141 64.0591624,97.1837704 C66.2315898,95.6561069 68.139273,94.2299239 69.4891414,92.2963383 C70.701735,90.5602579 71.6256159,87.8606582 70.5873394,85.4895062 C69.8247019,83.7632464 68.0597408,82.4090818 65.8513605,81.8689437 C63.6429802,81.3288055 61.2646407,81.6125144 59.4473845,81.9235031 C52.1195276,83.1772783 45.049878,86.3668215 38.4367214,91.4059288 C32.4761646,95.946363 26.9971589,101.975178 22.5891142,108.839843 C14.3395554,121.687493 9.79532543,136.269042 5.11599963,152.620497 C3.54823483,158.121177 2.16132407,163.104634 1.18187962,168.167747 Z" id="Shape" fill="#000000"></path>
                                    <path d="M34.9693252,115.485714 C42.9449426,107.043655 53.7802423,100.833131 65.0306748,97.6714286" id="Path" fill="#FFFFFF"></path>
                                    <path d="M34.8975139,116.1 C34.7607772,116.099789 34.6291641,116.047445 34.5290729,115.953436 C34.4236717,115.854724 34.3614793,115.717779 34.3561946,115.572766 C34.35091,115.427754 34.4029665,115.286569 34.5008979,115.180311 C42.2078187,106.82465 52.807002,100.396881 64.3359573,97.0791121 C64.6238278,96.9945606 64.9251164,97.1615107 65.0089041,97.4520058 C65.0926917,97.7425008 64.9272499,98.0465362 64.6393794,98.1310878 C53.2968119,101.394181 42.8775146,107.713689 35.2995482,115.926098 C35.1957031,116.03849 35.0497834,116.101597 34.8975139,116.1 L34.8975139,116.1 Z" id="Path" fill="#000000"></path>
                                    <path d="M47.2392638,129.614286 C52.7467442,125.297705 59.7911958,120.536864 65.6441718,117.942857" id="Path" fill="#FFFFFF"></path>
                                    <path d="M47.1676801,130.228571 C46.9369491,130.228396 46.7315938,130.082669 46.6558508,129.865359 C46.5801077,129.648049 46.6505644,129.406746 46.8314576,129.263934 C56.2760556,121.824767 63.0297892,118.471247 65.4939746,117.375757 C65.7674189,117.253916 66.0881491,117.37617 66.2103454,117.648818 C66.3325418,117.921467 66.2099311,118.241263 65.9364868,118.363104 C63.5080928,119.444536 56.8530568,122.749391 47.4984796,130.112858 C47.4041025,130.186883 47.2877539,130.227581 47.1676801,130.228571 L47.1676801,130.228571 Z" id="Path" fill="#000000"></path>
                                    <ellipse id="Oval" fill="#000000" cx="100.613497" cy="32.5571429" rx="1" ry="1"></ellipse>
                                    <ellipse id="Oval" fill="#000000" cx="113.496933" cy="29.4857143" rx="1" ry="1"></ellipse>
                                </g>
                            </g>
                        </g>
                    </g>
                </g>
            </g>
        </g>
    </g>
</svg>